<svg width="253" height="237" viewBox="0 0 253 237" fill="none" xmlns="http://www.w3.org/2000/svg">
    <path d="M17.0511 220.532C16.8925 220.532 16.7405 220.469 16.6283 220.357C16.5162 220.245 16.4531 220.093 16.4531 219.934C16.4531 219.776 16.5162 219.623 16.6283 219.511C16.7405 219.399 16.8925 219.336 17.0511 219.336L181.107 218.341C181.266 218.341 181.418 218.404 181.531 218.516C181.643 218.628 181.705 218.78 181.705 218.939C181.705 219.097 181.643 219.249 181.531 219.361C181.418 219.474 181.266 219.537 181.107 219.537L17.0511 220.532Z" fill="black"/>
    <path d="M189.64 212.146H166.059C165.94 212.146 165.826 212.098 165.742 212.014C165.658 211.93 165.611 211.816 165.611 211.697C165.611 211.578 165.658 211.464 165.742 211.38C165.826 211.296 165.94 211.249 166.059 211.249H189.64C189.759 211.249 189.873 211.296 189.957 211.38C190.042 211.464 190.089 211.578 190.089 211.697C190.089 211.816 190.042 211.93 189.957 212.014C189.873 212.098 189.759 212.146 189.64 212.146Z" fill="black"/>
    <path d="M25.0249 226.096H0.448478C0.329534 226.096 0.215204 226.049 0.131098 225.965C0.0469922 225.881 0 225.767 0 225.648C0 225.529 0.0469922 225.415 0.131098 225.331C0.215204 225.247 0.329534 225.199 0.448478 225.199H25.0249C25.1438 225.199 25.2581 225.247 25.3422 225.331C25.4263 225.415 25.4733 225.529 25.4733 225.648C25.4733 225.767 25.4263 225.881 25.3422 225.965C25.2581 226.049 25.1438 226.096 25.0249 226.096Z" fill="black"/>
    <path d="M13.4241 107.42C-0.329218 77.4944 13.5409 40.0345 44.3753 23.7488C75.2096 7.46305 111.348 18.5165 125.101 48.439C138.855 78.3615 124.985 115.824 94.1502 132.11C90.3906 134.101 86.4477 135.724 82.3762 136.957L76.9945 159.524L61.0974 146.805C39.6153 146.698 22.8272 127.879 13.4241 107.42Z" fill="#FFCB89"/>
    <path d="M74.0406 16.2324C95.6394 16.2324 115.647 27.8928 125.086 48.4391C138.84 78.3616 124.97 115.824 94.1355 132.11C90.3758 134.101 86.4329 135.724 82.3614 136.957L76.9797 159.524L61.0975 146.805C39.6154 146.698 22.8273 127.88 13.4242 107.42C-0.329103 77.4945 13.541 40.0347 44.3754 23.7489C54.0266 18.6512 64.198 16.2324 74.0406 16.2324ZM74.0406 15.3354C63.7974 15.3354 53.3956 17.9725 43.9567 22.9566C28.8823 30.9273 17.2721 44.1713 11.3433 60.1593C8.4884 67.7883 7.0929 75.8859 7.22933 84.0304C7.35838 92.2387 9.191 100.331 12.6111 107.794C17.7417 118.964 24.4899 128.513 32.1289 135.411C36.3895 139.256 40.9041 142.249 45.5474 144.303C50.3467 146.459 55.535 147.614 60.7956 147.699L76.4474 160.224C76.5655 160.318 76.7055 160.381 76.8544 160.407C77.0033 160.432 77.1563 160.42 77.2991 160.371C77.442 160.322 77.5702 160.237 77.6717 160.125C77.7732 160.013 77.8446 159.878 77.8796 159.731L83.1299 137.665C87.0815 136.433 90.9107 134.839 94.569 132.903C109.64 124.93 121.247 111.686 127.173 95.6998C130.028 88.0708 131.424 79.9732 131.287 71.8288C131.159 63.6204 129.326 55.5283 125.906 48.0654C116.637 27.8779 96.7634 15.3354 74.0465 15.3354H74.0406Z" fill="black"/>
    <path d="M41.9236 84.7749C41.8231 84.7754 41.7253 84.742 41.646 84.6802C41.5667 84.6184 41.5104 84.5317 41.4863 84.4341C41.4621 84.3365 41.4715 84.2337 41.5128 84.142C41.5542 84.0504 41.6252 83.9753 41.7143 83.9288L96.5691 55.1783C96.6746 55.1232 96.7978 55.1123 96.9113 55.1479C97.0248 55.1835 97.1195 55.2627 97.1747 55.3682C97.2298 55.4737 97.2406 55.5967 97.205 55.7102C97.1694 55.8238 97.0903 55.9185 96.9849 55.9736L42.1298 84.7241C42.0663 84.758 41.9956 84.7755 41.9236 84.7749Z" fill="black"/>
    <path d="M52.2414 99.8826C52.1412 99.8824 52.044 99.8485 51.9652 99.7865C51.8864 99.7244 51.8307 99.6378 51.807 99.5403C51.7832 99.4429 51.7927 99.3403 51.8341 99.249C51.8755 99.1577 51.9464 99.0828 52.0353 99.0364L83.9876 82.2933C84.0916 82.2478 84.2091 82.2435 84.3161 82.2811C84.4231 82.3187 84.5119 82.3954 84.5646 82.4959C84.6173 82.5963 84.6298 82.713 84.5999 82.8224C84.57 82.9318 84.4999 83.0259 84.4034 83.0856L52.4508 99.8288C52.3867 99.8641 52.3146 99.8826 52.2414 99.8826Z" fill="black"/>
    <path d="M41.6633 118.889C38.0954 117.347 34.7945 115.249 31.8835 112.673C25.7966 107.285 21.5166 100.153 19.6251 92.2466C17.5615 83.4758 18.2794 74.2801 21.6792 65.9358C21.8785 65.4415 22.0926 64.9522 22.3218 64.4678C22.3975 64.3296 22.4176 64.1677 22.3776 64.0153C22.3376 63.8629 22.2405 63.7317 22.1066 63.6486C22.0388 63.6088 21.9639 63.5828 21.8859 63.5721C21.808 63.5614 21.7284 63.5662 21.6523 63.5862C21.5762 63.6062 21.505 63.641 21.4424 63.6886C21.3798 63.7363 21.3269 63.7958 21.2874 63.8638C17.4385 72.3105 16.3245 81.7485 18.1004 90.8593C19.718 99.1261 23.8559 106.689 29.946 112.509C32.8291 115.273 36.1282 117.569 39.7228 119.311C40.1673 119.526 40.6158 119.725 41.0683 119.909C41.2068 119.983 41.3683 120.002 41.5203 119.962C41.6722 119.922 41.8035 119.826 41.8876 119.693C41.9274 119.626 41.9534 119.55 41.9641 119.472C41.9748 119.395 41.9701 119.315 41.9501 119.239C41.9301 119.163 41.8952 119.092 41.8476 119.029C41.7999 118.966 41.7404 118.914 41.6724 118.874L41.6633 118.889Z" fill="white"/>
    <path d="M113.271 23.9224C113.196 23.9225 113.122 23.9037 113.056 23.8677C112.99 23.8316 112.934 23.7795 112.894 23.7161C104.821 11.2155 91.0084 8.10606 80.8519 7.70243C73.9919 7.4653 67.1324 8.18887 60.4729 9.85212C60.3614 9.87667 60.2446 9.85773 60.1465 9.79916C60.0484 9.74059 59.9763 9.64683 59.945 9.53696C59.9138 9.4271 59.9258 9.30942 59.9783 9.20798C60.0308 9.10653 60.1199 9.02897 60.2277 8.99107C66.9777 7.30289 73.9307 6.56722 80.8846 6.80547C95.7561 7.40344 107.085 13.0842 113.647 23.2317C113.691 23.2994 113.715 23.3776 113.718 23.458C113.721 23.5384 113.702 23.618 113.664 23.6887C113.625 23.7593 113.569 23.8182 113.499 23.8594C113.43 23.9005 113.351 23.9223 113.271 23.9224Z" fill="black"/>
    <path d="M225.982 2.88863L188.666 10.2825C186.323 10.7469 184.239 12.0703 182.823 13.9927C181.407 15.9151 180.761 18.2977 181.012 20.6723L182.758 37.1853C183.006 39.5356 184.115 41.7109 185.872 43.2919C187.628 44.873 189.908 45.748 192.272 45.7482H195.261L201.779 56.4549L208.707 45.7482H226.102C228.519 45.7478 230.846 44.8325 232.616 43.1863C234.386 41.5401 235.467 39.285 235.642 36.8743L237.382 12.9555C237.487 11.4878 237.252 10.0157 236.695 8.6537C236.138 7.2917 235.275 6.07647 234.172 5.10252C233.069 4.12857 231.756 3.42213 230.336 3.03816C228.915 2.65419 227.426 2.60303 225.982 2.88863Z" fill="#FFCB89"/>
    <path d="M227.869 2.69426C229.182 2.69775 230.48 2.97146 231.683 3.49833C232.885 4.0252 233.967 4.79397 234.859 5.75678C235.752 6.7196 236.437 7.85586 236.872 9.09482C237.306 10.3338 237.481 11.6489 237.385 12.9584L235.645 36.8773C235.47 39.288 234.389 41.5431 232.619 43.1893C230.849 44.8354 228.522 45.7507 226.105 45.7512H208.71L201.782 56.4578L195.264 45.7512H192.275C189.911 45.7509 187.631 44.876 185.875 43.2949C184.118 41.7138 183.009 39.5385 182.761 37.1882L181.015 20.6753C180.764 18.3007 181.41 15.9181 182.826 13.9957C184.243 12.0732 186.326 10.7499 188.669 10.2855L225.985 2.8916C226.606 2.76864 227.238 2.70656 227.872 2.70623L227.869 2.69426ZM227.872 1.80928C227.18 1.81012 226.49 1.87819 225.812 2.01257L188.495 9.40348C185.934 9.91134 183.655 11.3585 182.106 13.4606C180.557 15.5628 179.85 18.1681 180.124 20.7649L181.867 37.2809C182.135 39.8532 183.347 42.2346 185.27 43.9645C187.193 45.6943 189.688 46.6494 192.275 46.6451H194.762L201.02 56.9213C201.099 57.0509 201.209 57.1584 201.341 57.2337C201.473 57.309 201.621 57.3497 201.773 57.3518C201.923 57.3519 202.07 57.3144 202.202 57.2429C202.334 57.1713 202.445 57.0679 202.527 56.9422L209.188 46.6451H226.096C228.737 46.6362 231.277 45.6323 233.211 43.8336C235.145 42.0349 236.33 39.5736 236.53 36.9401L238.27 13.0212C238.382 11.588 238.194 10.1472 237.717 8.79076C237.241 7.43433 236.488 6.19197 235.505 5.14294C234.528 4.09084 233.345 3.25073 232.03 2.6747C230.715 2.09866 229.295 1.799 227.86 1.79431L227.872 1.80928Z" fill="black"/>
    <path d="M197.115 25.3305C197.056 25.3317 196.998 25.3213 196.943 25.2998C196.888 25.2784 196.838 25.2463 196.795 25.2055C196.71 25.1231 196.66 25.0099 196.658 24.891C196.655 24.7721 196.7 24.657 196.783 24.5712C196.865 24.4855 196.978 24.4359 197.097 24.4335L225.375 23.3333C225.434 23.3301 225.493 23.3388 225.549 23.3588C225.604 23.3789 225.655 23.41 225.699 23.4502C225.742 23.4903 225.776 23.5388 225.8 23.5927C225.825 23.6466 225.838 23.7048 225.839 23.7638C225.841 23.8228 225.833 23.8818 225.812 23.9373C225.792 23.9928 225.761 24.0437 225.721 24.0871C225.681 24.1306 225.633 24.1656 225.579 24.1901C225.525 24.2147 225.467 24.2283 225.408 24.2303L197.133 25.3275L197.115 25.3305Z" fill="black"/>
    <path d="M198.212 33.5675C198.093 33.5707 197.978 33.5265 197.891 33.4447C197.805 33.3628 197.755 33.25 197.752 33.131C197.748 33.0121 197.793 32.8968 197.875 32.8104C197.956 32.7241 198.069 32.6738 198.188 32.6706L218.22 31.5733C218.279 31.5701 218.338 31.5785 218.394 31.5981C218.45 31.6177 218.501 31.6481 218.545 31.6876C218.588 31.727 218.624 31.7747 218.65 31.8279C218.675 31.8812 218.69 31.939 218.693 31.9979C218.698 32.1167 218.657 32.2329 218.578 32.3214C218.498 32.4098 218.387 32.4633 218.268 32.4703L198.236 33.5675H198.212Z" fill="black"/>
    <path d="M232.781 37.4693H232.724C232.527 37.454 232.343 37.3611 232.214 37.211C232.084 37.0609 232.02 36.8657 232.034 36.668C232.034 36.5693 232.784 26.4128 233.528 15.6642C233.771 12.1123 233.125 9.66658 231.612 8.39889C229.902 6.96973 227.561 7.53482 227.54 7.5408C227.35 7.58552 227.15 7.55398 226.982 7.45291C226.815 7.35185 226.694 7.1893 226.645 7.00009C226.596 6.81088 226.623 6.61008 226.721 6.44066C226.818 6.27125 226.978 6.1467 227.166 6.09372C227.292 6.06083 230.252 5.32531 232.548 7.24181C234.462 8.82943 235.29 11.6967 235.011 15.7659C234.279 26.5294 233.537 36.677 233.517 36.7786C233.502 36.9645 233.418 37.1383 233.282 37.266C233.146 37.3937 232.968 37.4662 232.781 37.4693Z" fill="white"/>
    <path d="M194.786 14.582C186.247 14.582 178.512 11.7685 173.032 9.05372C168.475 6.81379 164.202 4.03745 160.304 0.783767C160.215 0.704471 160.161 0.59314 160.155 0.47427C160.148 0.3554 160.189 0.238731 160.268 0.149919C160.348 0.0611077 160.459 0.00744675 160.578 0.000718267C160.697 -0.00601021 160.813 0.0347464 160.902 0.114042C164.749 3.31975 168.964 6.05488 173.459 8.2614C180.405 11.6967 191.034 15.2965 202.246 12.9136C202.362 12.8887 202.484 12.911 202.584 12.9758C202.684 13.0405 202.755 13.1424 202.779 13.2589C202.804 13.3755 202.782 13.4972 202.717 13.5973C202.653 13.6974 202.551 13.7677 202.434 13.7926C199.919 14.3228 197.356 14.5874 194.786 14.582Z" fill="black"/>
    <path d="M184.877 31.3968C175.842 31.3968 169.423 25.2796 169.33 25.2019C169.286 25.1614 169.25 25.1123 169.225 25.0577C169.2 25.0031 169.186 24.944 169.184 24.8839C169.182 24.8238 169.192 24.764 169.214 24.708C169.236 24.6519 169.269 24.6008 169.311 24.5577C169.352 24.5146 169.403 24.4804 169.458 24.4571C169.513 24.4337 169.573 24.4218 169.633 24.4219C169.693 24.422 169.753 24.4342 169.808 24.4578C169.863 24.4813 169.913 24.5158 169.955 24.559C170.051 24.6517 179.789 33.9053 191.99 29.1305C192.045 29.1072 192.105 29.095 192.165 29.0949C192.224 29.0948 192.284 29.1067 192.339 29.1298C192.394 29.153 192.444 29.1869 192.486 29.2297C192.528 29.2725 192.561 29.3232 192.583 29.3789C192.605 29.4346 192.615 29.4941 192.614 29.5539C192.612 29.6138 192.599 29.6727 192.574 29.7273C192.55 29.7819 192.515 29.8311 192.471 29.8718C192.427 29.9126 192.375 29.9442 192.319 29.9647C189.95 30.9042 187.426 31.3901 184.877 31.3968Z" fill="black"/>
    <path d="M83.9697 56.0631C99.218 59.352 99.6665 83.4203 135.246 72.6568C170.825 61.8933 193.697 57.558 213.879 76.2446C236.261 96.9673 228.23 148.898 195.342 167.136C167.351 182.66 125.08 184.477 125.08 184.477L83.9697 56.0631Z" fill="#7E74C1"/>
    <path d="M83.9698 56.0631C96.4644 58.754 99.0236 75.4075 119.118 75.4075C123.546 75.4075 128.824 74.6002 135.246 72.6568C153.26 67.2063 168.018 63.4062 180.817 63.4062C193.297 63.4062 203.914 67.0179 213.879 76.2446C236.261 96.9673 228.23 148.898 195.342 167.136C167.351 182.66 125.08 184.477 125.08 184.477L83.9698 56.0631ZM83.9698 55.1662C83.8287 55.1661 83.6896 55.1993 83.5637 55.2632C83.4378 55.327 83.3288 55.4197 83.2454 55.5336C83.1621 55.6475 83.107 55.7794 83.0843 55.9187C83.0615 56.058 83.0718 56.2007 83.1146 56.3352L124.225 184.749C124.283 184.931 124.397 185.089 124.551 185.202C124.704 185.314 124.89 185.374 125.08 185.374H125.119C133.414 184.883 141.675 183.928 149.863 182.513C162.767 180.316 181.206 176.001 195.776 167.92C204.335 163.175 211.762 155.817 217.26 146.644C222.421 137.951 225.709 128.277 226.915 118.24C227.928 109.869 227.405 101.617 225.402 94.3781C223.291 86.739 219.518 80.2421 214.489 75.5869C204.853 66.6652 194.158 62.5093 180.817 62.5093C168.224 62.5093 153.944 66.0642 134.986 71.7987C128.952 73.6225 123.762 74.5105 119.118 74.5105C107.661 74.5105 102.187 69.0181 96.8919 63.7082C93.1187 59.923 89.5578 56.3501 84.1582 55.1871C84.0964 55.1727 84.0332 55.1657 83.9698 55.1662Z" fill="black"/>
    <path d="M109.683 81.7761C109.683 81.7761 109.085 86.5599 128.22 90.1477C147.355 93.7355 188.017 110.18 191.306 134.697C194.594 159.213 188.914 176.555 154.829 177.153C120.745 177.75 92.2009 81.7761 92.2009 81.7761H109.683Z" fill="#534E93"/>
    <path d="M66.7182 103.904C60.0508 110.781 43.9056 136.493 39.1219 166.691C34.3381 196.889 58.8549 220.209 58.8549 220.209L152.138 218.415C152.138 218.415 157.52 190.909 147.056 156.525C143.037 143.319 180.378 129.434 169.779 121.544C155.03 110.562 84.5677 94.0375 84.5677 94.0375" fill="#00D7AD"/>
    <path d="M58.855 220.655C58.7437 220.652 58.6373 220.608 58.556 220.532C58.4932 220.473 52.3163 214.553 46.815 204.985C41.7322 196.159 36.1978 182.337 38.6883 166.61C43.2957 137.513 59.0194 111.202 66.4044 103.581C66.4872 103.495 66.6008 103.446 66.72 103.444C66.8391 103.442 66.9541 103.488 67.0397 103.571C67.1253 103.653 67.1747 103.767 67.1766 103.886C67.1786 104.005 67.1331 104.12 67.0502 104.206C59.7281 111.755 44.1508 137.851 39.5733 166.748C37.1246 182.208 42.5633 195.818 47.5773 204.516C50.744 210.054 54.5963 215.171 59.0433 219.746L151.771 217.952C152.339 214.624 156.309 188.421 146.637 156.636C144.544 149.759 153.071 142.805 160.597 136.682C166.107 132.197 171.309 127.966 171.241 124.686C171.217 123.646 170.643 122.728 169.518 121.882C155.012 111.083 85.1778 94.6175 84.4752 94.453C84.4161 94.4415 84.3598 94.4181 84.3099 94.3843C84.26 94.3506 84.2174 94.3071 84.1847 94.2565C84.1519 94.206 84.1299 94.1493 84.1195 94.09C84.1092 94.0307 84.1108 93.9699 84.1245 93.9112C84.1382 93.8526 84.1635 93.7973 84.199 93.7486C84.2345 93.7 84.2795 93.6589 84.3312 93.628C84.3829 93.5971 84.4403 93.5769 84.5 93.5687C84.5597 93.5604 84.6203 93.5643 84.6784 93.58C87.5606 94.2557 155.4 110.251 170.057 121.164C171.408 122.172 172.108 123.35 172.149 124.669C172.227 128.385 167.106 132.553 161.177 137.378C153.867 143.322 145.585 150.061 147.504 156.373C157.882 190.457 152.653 218.203 152.587 218.481C152.568 218.582 152.514 218.673 152.436 218.739C152.358 218.805 152.259 218.841 152.156 218.843L58.8728 220.637L58.855 220.655Z" fill="black"/>
    <path d="M93.7765 170.772C90.0631 171.343 79.2069 167.914 68.6348 176.77C58.0627 185.626 60.6369 199.056 60.6369 199.056L65.2084 217.055L87.0852 219.698L109.285 219.982C111.142 217.202 114.143 212.508 114.918 210.196C116.06 206.77 114.06 199.911 117.776 195.914C121.493 191.916 109.775 171.627 109.775 171.627C109.775 171.627 97.4899 170.201 93.7765 170.772Z" fill="#05AF8F"/>
    <path d="M81.9216 93.344C94.3594 89.4063 140.131 89.3824 172.876 115.663C205.621 141.944 179.905 171.203 167.348 172.252C154.79 173.302 141.656 168.868 140.254 161.408L135.036 158.167L144.604 135.465L150.204 137.776C150.204 137.776 154.724 123.365 170.158 127.013" fill="#00D7AD"/>
    <path d="M163.679 172.853C158.626 172.853 153.597 172.013 149.459 170.44C144.027 168.377 140.627 165.277 139.853 161.689L134.8 158.547C134.709 158.491 134.641 158.405 134.609 158.303C134.576 158.201 134.582 158.092 134.624 157.994L144.191 135.292C144.214 135.236 144.247 135.185 144.29 135.142C144.333 135.1 144.383 135.067 144.439 135.044C144.495 135.022 144.555 135.011 144.615 135.012C144.675 135.014 144.734 135.027 144.789 135.052L149.953 137.181C150.893 134.774 152.298 132.575 154.088 130.711C156.958 127.757 162.098 124.636 170.275 126.561C170.391 126.589 170.491 126.661 170.553 126.762C170.616 126.863 170.636 126.985 170.608 127.101C170.581 127.217 170.509 127.317 170.407 127.379C170.306 127.442 170.184 127.462 170.068 127.434C163.847 125.969 158.707 127.276 154.754 131.321C152.939 133.209 151.539 135.457 150.646 137.92C150.629 137.979 150.598 138.034 150.558 138.08C150.517 138.126 150.467 138.163 150.41 138.189C150.353 138.214 150.292 138.227 150.229 138.227C150.167 138.227 150.105 138.214 150.048 138.189L144.858 136.051L135.59 157.988L140.481 161.028C140.534 161.061 140.58 161.104 140.616 161.156C140.652 161.207 140.676 161.266 140.687 161.327C142.093 168.802 155.586 172.787 167.297 171.792C173.967 171.236 183.768 162.876 187.159 151.76C189.849 142.94 189.512 129.575 172.58 115.989C154.778 101.701 134.011 95.9212 119.696 93.5921C102.845 90.8444 88.3646 91.7473 82.0441 93.7476C81.9307 93.7836 81.8078 93.7732 81.7021 93.7185C81.5965 93.6638 81.5166 93.5694 81.4805 93.456C81.4445 93.3426 81.4551 93.2196 81.5097 93.1139C81.5644 93.0082 81.6588 92.9285 81.7722 92.8925C88.1944 90.8594 102.845 89.9355 119.842 92.7071C134.247 95.0541 155.188 100.878 173.142 115.289C180.47 121.168 185.371 127.593 187.709 134.38C189.707 140.074 189.811 146.261 188.008 152.02C184.509 163.465 174.32 172.091 167.378 172.671C166.158 172.817 164.917 172.853 163.679 172.853Z" fill="black"/>
    <path d="M129.649 142.452C125.203 138.565 119.426 136.963 112.29 134.221C106.534 132.009 102.339 130.277 102.124 126.998C101.765 121.691 107.252 124.827 111.524 126.008C115.797 127.189 116.972 121.568 114.098 115.956C111.225 110.344 110.965 102.448 115.519 98.9677C120.601 95.0809 123.547 111.884 123.547 111.884C123.547 111.884 129.105 109.39 133.921 113.54C133.921 113.54 142.293 110.296 144.497 115.582C146.7 120.868 146.042 123.356 144.497 132.971C142.951 142.587 133.599 145.908 129.649 142.452Z" fill="#FFCDB2"/>
    <path d="M117.023 98.3846C121.175 98.3846 123.54 111.884 123.54 111.884C124.796 111.387 126.134 111.135 127.484 111.142C129.849 111.124 132.137 111.976 133.915 113.534C135.581 112.928 137.334 112.595 139.106 112.551C141.264 112.551 143.498 113.202 144.487 115.576C146.703 120.862 146.033 123.35 144.487 132.965C143.336 140.108 137.889 143.777 133.541 143.777C132.127 143.819 130.746 143.346 129.655 142.446C125.209 138.559 119.432 136.957 112.296 134.215C106.54 132.003 102.345 130.271 102.13 126.992C101.978 124.731 102.887 124.002 104.31 124.002C106.226 124.002 109.093 125.326 111.53 126.002C111.883 126.104 112.248 126.157 112.615 126.16C115.982 126.16 116.718 121.051 114.11 115.95C111.234 110.335 110.977 102.442 115.531 98.9616C115.948 98.6015 116.474 98.391 117.025 98.3636L117.023 98.3846ZM117.025 97.4667C116.274 97.4859 115.551 97.7565 114.972 98.2351C110.047 101.999 110.254 110.398 113.297 116.342C115.112 119.888 115.04 122.97 114.194 124.334C114.038 124.619 113.806 124.856 113.524 125.017C113.241 125.179 112.92 125.259 112.595 125.248C112.308 125.245 112.024 125.203 111.749 125.123C110.95 124.902 110.083 124.603 109.243 124.313C107.428 123.685 105.712 123.09 104.289 123.09C103.314 123.09 102.549 123.389 102.017 123.951C101.383 124.63 101.119 125.637 101.215 127.039C101.481 131.01 106.337 132.876 111.958 135.037C113.294 135.548 114.577 136.021 115.815 136.475C121.259 138.479 125.556 140.063 129.048 143.107C130.303 144.155 131.898 144.707 133.532 144.659C138.364 144.659 144.153 140.604 145.36 133.094C145.483 132.334 145.6 131.62 145.71 130.944C147.008 122.997 147.447 120.318 145.307 115.214C144.326 112.873 142.176 111.627 139.094 111.627C137.389 111.662 135.7 111.954 134.083 112.494C132.208 110.995 129.873 110.189 127.472 110.212C126.369 110.215 125.272 110.368 124.21 110.667C123.808 108.692 123.297 106.74 122.679 104.822C121.047 99.8645 119.193 97.4547 116.999 97.4547L117.025 97.4667Z" fill="black"/>
    <path d="M138.896 129.165C138.278 129.167 137.666 129.036 137.102 128.782C134.728 127.709 133.64 124.674 133.216 122.961C132.653 123.766 131.935 124.451 131.105 124.975C130.275 125.5 129.349 125.854 128.381 126.017C127.489 126.164 126.575 126.07 125.731 125.746C124.888 125.422 124.146 124.878 123.582 124.172C121.334 121.433 122.41 115.905 123.053 112.604C123.149 112.102 123.236 111.66 123.295 111.301C123.314 111.183 123.379 111.079 123.476 111.009C123.572 110.939 123.692 110.911 123.809 110.93C123.927 110.95 124.032 111.015 124.101 111.112C124.171 111.209 124.199 111.33 124.18 111.447C124.121 111.815 124.034 112.264 123.932 112.775C123.361 115.717 122.294 121.188 124.276 123.601C124.739 124.191 125.354 124.644 126.054 124.913C126.754 125.182 127.514 125.256 128.253 125.129C129.278 124.961 130.246 124.544 131.072 123.915C131.899 123.285 132.559 122.463 132.994 121.52C133.032 121.43 133.098 121.354 133.183 121.305C133.268 121.257 133.367 121.238 133.464 121.251C133.561 121.263 133.652 121.307 133.722 121.375C133.792 121.444 133.838 121.534 133.852 121.631C133.852 121.682 134.624 126.675 137.485 127.966C138.852 128.564 140.523 128.265 142.457 126.992C148.213 123.239 142.882 113.591 142.825 113.495C142.767 113.391 142.752 113.269 142.784 113.154C142.817 113.039 142.893 112.942 142.997 112.884C143.101 112.826 143.223 112.811 143.338 112.843C143.453 112.875 143.55 112.952 143.608 113.056C143.847 113.48 149.4 123.535 142.947 127.742C141.468 128.684 140.119 129.165 138.896 129.165Z" fill="black"/>
    <path d="M133.643 122.07H133.607C133.548 122.066 133.491 122.05 133.438 122.024C133.386 121.997 133.339 121.961 133.3 121.916C133.262 121.871 133.233 121.819 133.215 121.763C133.197 121.707 133.19 121.648 133.195 121.589L133.831 113.328C133.841 113.209 133.897 113.099 133.987 113.021C134.078 112.943 134.195 112.905 134.314 112.914C134.433 112.923 134.544 112.979 134.622 113.07C134.699 113.16 134.738 113.278 134.728 113.397L134.092 121.658C134.083 121.77 134.031 121.875 133.948 121.952C133.865 122.028 133.756 122.071 133.643 122.07Z" fill="black"/>
    <path d="M100.704 182.507C100.704 182.507 98.2939 156.002 104.319 151.183C110.343 146.363 113.919 149.239 112.732 157.44" fill="#FFCDB2"/>
    <path d="M100.704 182.956C100.592 182.956 100.484 182.913 100.402 182.838C100.319 182.762 100.268 182.658 100.259 182.546C100.16 181.455 97.8967 155.745 104.038 150.833C107.691 147.912 109.919 148.142 111.142 148.836C113.1 149.954 113.833 153.022 113.178 157.506C113.161 157.625 113.097 157.733 113.001 157.805C112.905 157.877 112.784 157.908 112.665 157.89C112.546 157.873 112.439 157.81 112.367 157.714C112.295 157.618 112.264 157.497 112.281 157.378C112.861 153.356 112.281 150.528 110.687 149.604C109.297 148.809 107.132 149.49 104.591 151.524C98.8234 156.137 101.117 182.194 101.141 182.457C101.151 182.575 101.115 182.692 101.039 182.784C100.964 182.875 100.855 182.933 100.737 182.944L100.704 182.956Z" fill="black"/>
    <path d="M144.263 136.009L146.159 136.79L135.396 157.743C135.396 157.743 122.539 146.955 121.941 137.986" fill="#FFCDB2"/>
    <path d="M135.396 158.191C135.286 158.194 135.18 158.157 135.097 158.086C134.564 157.641 122.085 147.072 121.481 138.015C121.477 137.956 121.485 137.897 121.504 137.841C121.522 137.786 121.552 137.734 121.591 137.689C121.67 137.6 121.78 137.545 121.899 137.537C122.018 137.529 122.136 137.569 122.225 137.647C122.315 137.726 122.37 137.837 122.378 137.956C122.895 145.729 133.028 155.069 135.234 157.028L145.513 137.02L144.069 136.422C144.014 136.399 143.965 136.366 143.923 136.325C143.881 136.283 143.848 136.234 143.825 136.18C143.802 136.125 143.791 136.067 143.79 136.008C143.79 135.949 143.802 135.89 143.824 135.836C143.846 135.781 143.879 135.732 143.921 135.69C143.962 135.648 144.012 135.615 144.066 135.592C144.121 135.569 144.179 135.557 144.238 135.557C144.297 135.557 144.355 135.568 144.41 135.591L146.306 136.371C146.363 136.395 146.415 136.43 146.458 136.475C146.501 136.52 146.535 136.573 146.557 136.631C146.578 136.69 146.587 136.752 146.583 136.814C146.579 136.877 146.562 136.938 146.533 136.993L135.769 157.946C135.74 158.004 135.697 158.055 135.646 158.096C135.594 158.136 135.534 158.164 135.47 158.179C135.446 158.185 135.421 158.189 135.396 158.191Z" fill="black"/>
    <path d="M120.082 124.873L102.524 128.791C99.6844 129.425 97.896 132.241 98.5297 135.08L107.826 176.739C108.46 179.579 111.276 181.367 114.115 180.733L131.673 176.815C134.513 176.181 136.301 173.365 135.668 170.526L126.371 128.867C125.737 126.028 122.922 124.239 120.082 124.873Z" fill="white"/>
    <path d="M121.244 124.923C122.441 124.924 123.602 125.333 124.536 126.083C125.47 126.832 126.12 127.877 126.381 129.046L135.676 170.703C135.977 172.066 135.724 173.492 134.975 174.669C134.226 175.846 133.04 176.678 131.679 176.982L114.122 180.899C112.76 181.198 111.334 180.946 110.157 180.197C108.981 179.448 108.149 178.263 107.843 176.901L98.551 135.247C98.2498 133.885 98.5011 132.459 99.25 131.282C99.9988 130.104 101.184 129.272 102.546 128.968L120.102 125.051C120.481 124.966 120.868 124.923 121.256 124.923H121.244ZM121.256 124.026C120.803 124.026 120.35 124.076 119.908 124.175L102.351 128.092C101.561 128.268 100.813 128.598 100.15 129.064C99.487 129.529 98.9225 130.12 98.4882 130.804C98.054 131.487 97.7585 132.25 97.619 133.048C97.4795 133.845 97.4986 134.663 97.6751 135.453L106.97 177.111C107.328 178.703 108.302 180.088 109.679 180.965C111.055 181.841 112.723 182.136 114.317 181.787L131.873 177.867C133.468 177.509 134.856 176.533 135.732 175.153C136.608 173.773 136.901 172.102 136.546 170.506L127.257 128.866C126.945 127.502 126.182 126.283 125.091 125.407C123.999 124.531 122.644 124.05 121.244 124.041L121.256 124.026Z" fill="black"/>
    <path d="M122.689 134.263C123.221 133.706 123.56 132.993 123.655 132.229C123.751 131.466 123.599 130.691 123.22 130.02C122.842 129.35 122.258 128.819 121.554 128.506C120.851 128.193 120.066 128.114 119.314 128.282C118.563 128.449 117.885 128.854 117.382 129.437C116.878 130.019 116.575 130.748 116.518 131.516C116.46 132.283 116.651 133.049 117.062 133.7C117.474 134.351 118.084 134.852 118.802 135.13C118.27 135.686 117.931 136.399 117.835 137.163C117.739 137.927 117.892 138.702 118.27 139.372C118.648 140.043 119.232 140.574 119.936 140.887C120.639 141.2 121.425 141.279 122.176 141.111C122.928 140.943 123.605 140.539 124.109 139.956C124.612 139.374 124.915 138.645 124.973 137.877C125.03 137.109 124.839 136.343 124.428 135.693C124.017 135.042 123.407 134.54 122.689 134.263Z" fill="black"/>
    <path d="M120.527 133.643C121.66 133.39 122.374 132.27 122.123 131.142C121.871 130.014 120.748 129.305 119.615 129.557C118.482 129.81 117.768 130.93 118.02 132.058C118.271 133.186 119.394 133.896 120.527 133.643Z" fill="white"/>
    <path d="M121.83 139.48C122.963 139.227 123.677 138.108 123.425 136.98C123.173 135.852 122.051 135.142 120.918 135.395C119.785 135.648 119.071 136.767 119.323 137.895C119.574 139.023 120.697 139.733 121.83 139.48Z" fill="white"/>
    <path d="M104.899 164.595C109.683 157.174 116.777 148.773 124.973 148.773C139.306 148.773 132.791 159.617 132.791 159.617C132.791 159.617 140.61 163.229 138.002 170.458C138.002 170.458 140.61 184.914 130.184 189.734C119.759 194.554 111.946 189.734 111.946 189.734L98.9163 175.278" fill="#FFCDB2"/>
    <path d="M120.862 192.308C115.354 192.308 111.76 190.149 111.707 190.116C111.671 190.093 111.638 190.066 111.608 190.036L98.5784 175.577C98.5328 175.534 98.4963 175.483 98.4716 175.426C98.4469 175.369 98.4346 175.307 98.4351 175.245C98.4355 175.182 98.449 175.121 98.4745 175.064C98.5 175.007 98.5368 174.957 98.5831 174.915C98.6294 174.873 98.684 174.842 98.7431 174.822C98.8022 174.803 98.8648 174.796 98.9268 174.802C98.9887 174.808 99.0488 174.827 99.1031 174.857C99.1574 174.888 99.2047 174.929 99.2421 174.979L112.227 189.387C112.918 189.779 120.363 193.785 129.996 189.33C139.991 184.711 137.587 170.682 137.56 170.542C137.548 170.464 137.555 170.383 137.581 170.309C140.021 163.546 132.908 160.167 132.603 160.027C132.545 160 132.494 159.962 132.452 159.915C132.411 159.867 132.38 159.811 132.361 159.751C132.342 159.69 132.337 159.627 132.344 159.564C132.352 159.501 132.373 159.441 132.406 159.387C132.432 159.345 134.905 155.15 133.246 152.211C132.118 150.22 129.335 149.221 124.973 149.221C118.586 149.221 111.961 154.474 105.276 164.837C105.245 164.89 105.205 164.936 105.156 164.973C105.108 165.01 105.052 165.036 104.993 165.051C104.934 165.065 104.872 165.067 104.812 165.057C104.752 165.047 104.695 165.025 104.643 164.992C104.592 164.959 104.548 164.916 104.514 164.866C104.48 164.815 104.457 164.758 104.445 164.699C104.434 164.639 104.435 164.577 104.448 164.518C104.462 164.458 104.487 164.402 104.522 164.353C111.381 153.718 118.275 148.324 124.973 148.324C129.685 148.324 132.746 149.487 134.029 151.781C135.629 154.612 134.029 158.218 133.404 159.432C135.037 160.346 140.708 164.057 138.463 170.494C138.684 171.923 140.475 185.467 130.373 190.134C127.4 191.547 124.153 192.289 120.862 192.308Z" fill="black"/>
    <path d="M60.4995 193.746C62.2934 188.663 73.0569 181.787 79.9335 175.508C86.8102 169.229 95.4808 174.91 95.4808 174.91L99.6666 171.92L115.214 193.447L110.131 199.128C110.131 199.128 115.214 204.211 110.131 212.881C105.048 221.552 82.0264 229.027 69.469 234.109C56.9117 239.192 39.5705 237.398 32.0959 190.457C24.6212 143.517 62.8914 107.937 62.8914 107.937" fill="#00D7AD"/>
    <path d="M60.3649 236.501C57.2859 236.52 54.256 235.73 51.5779 234.211C42.121 228.868 35.4325 214.179 31.6533 190.529C29.9371 179.766 30.4993 168.703 33.3187 157.641C35.5731 148.809 39.2686 139.968 44.3035 131.36C52.8725 116.71 62.4909 107.689 62.5866 107.6C62.676 107.538 62.7844 107.511 62.8923 107.523C63.0002 107.535 63.1002 107.587 63.1732 107.667C63.2462 107.747 63.2876 107.851 63.2897 107.96C63.2918 108.069 63.2545 108.174 63.1846 108.257C63.0889 108.347 53.5512 117.293 45.051 131.835C37.2206 145.236 28.6876 166.272 32.5266 190.377C36.246 213.739 42.8025 228.219 52.0082 233.431C56.9774 236.238 62.7899 236.328 69.2898 233.697C71.3827 232.845 73.7924 231.927 76.3338 230.952C88.6759 226.222 105.578 219.743 109.733 212.657C114.568 204.411 110 199.645 109.802 199.448C109.721 199.367 109.674 199.258 109.671 199.144C109.667 199.029 109.708 198.917 109.784 198.832L114.628 193.42L99.5531 172.548L95.729 175.278C95.6547 175.329 95.5667 175.356 95.4765 175.356C95.3863 175.356 95.298 175.329 95.2236 175.278C94.8798 175.057 86.7564 169.869 80.2235 175.834C78.023 177.843 75.404 179.93 72.8686 181.951C67.5706 186.176 62.1051 190.547 60.9092 193.89C60.8637 193.993 60.7805 194.076 60.6765 194.121C60.5725 194.166 60.4554 194.17 60.3486 194.132C60.2418 194.094 60.1534 194.017 60.101 193.917C60.0486 193.817 60.036 193.7 60.066 193.591C61.3307 190.003 66.6646 185.751 72.3244 181.252C74.8478 179.239 77.458 177.159 79.6346 175.17C86.003 169.358 93.9203 173.472 95.4631 174.369L99.4094 171.55C99.5059 171.48 99.6257 171.452 99.7429 171.471C99.86 171.49 99.965 171.555 100.035 171.651L115.582 193.178C115.641 193.261 115.67 193.362 115.665 193.464C115.66 193.566 115.62 193.664 115.552 193.74L110.729 199.122C111.752 200.411 114.999 205.457 110.52 213.097C106.208 220.455 89.8301 226.73 76.6687 231.774C74.1303 232.746 71.7355 233.667 69.6396 234.513C66.3807 235.843 63.2831 236.501 60.3649 236.501Z" fill="black"/>
    <path d="M66.18 102.257C61.9583 104.508 60.8999 113.382 64.6851 116.309C66.3594 117.604 71.8069 119.332 74.5516 119.598C83.8202 120.495 85.4646 114.067 87.2585 110.778C87.2585 110.778 108.636 106.144 85.0161 95.978L66.18 102.257Z" fill="white"/>
    <path d="M85.0159 95.978C108.636 106.144 87.2583 110.778 87.2583 110.778C85.578 113.854 84.0323 119.682 76.2438 119.682C75.7086 119.682 75.1464 119.655 74.5515 119.598C71.8068 119.332 66.3592 117.604 64.6849 116.309C60.8998 113.382 61.9582 104.508 66.1799 102.257L85.0159 95.978ZM85.0159 95.081C84.9145 95.0795 84.8135 95.0946 84.717 95.1259L65.8809 101.405C65.8337 101.421 65.7878 101.441 65.7434 101.464C63.4202 102.705 61.7906 105.701 61.4886 109.286C61.1897 112.634 62.1915 115.526 64.12 117.018C65.9707 118.447 71.5945 120.214 74.4498 120.492C75.0478 120.549 75.6607 120.579 76.2438 120.579C83.5181 120.579 85.8321 115.765 87.3599 112.578C87.5334 112.219 87.6978 111.875 87.8592 111.558C89.7817 111.092 96.6197 109.166 97.0084 105.124C97.3074 101.919 93.5132 98.6569 85.3719 95.1528C85.2592 95.1055 85.1381 95.0811 85.0159 95.081Z" fill="black"/>
    <path d="M82.478 59.5284C88.8899 59.5284 94.0877 54.3306 94.0877 47.9188C94.0877 41.507 88.8899 36.3092 82.478 36.3092C76.0662 36.3092 70.8684 41.507 70.8684 47.9188C70.8684 54.3306 76.0662 59.5284 82.478 59.5284Z" fill="#7E74C1"/>
    <path d="M82.4872 36.3092C85.0564 36.3112 87.5525 37.1653 89.5843 38.7378C91.616 40.3104 93.0687 42.5125 93.7149 44.9991C94.361 47.4858 94.1638 50.1165 93.1546 52.4792C92.1453 54.8419 90.3811 56.8031 88.1378 58.0555C85.8945 59.308 83.2989 59.7809 80.7581 59.4002C78.2172 59.0196 75.8743 57.8069 74.0966 55.952C72.3188 54.0972 71.2067 51.705 70.9342 49.1502C70.6616 46.5955 71.2444 44.0226 72.5908 41.8344C73.628 40.1419 75.0829 38.7447 76.8161 37.7771C78.5492 36.8094 80.5022 36.3039 82.4872 36.3092ZM82.4872 35.4122C79.4661 35.4089 76.5456 36.4986 74.2653 38.4803C71.985 40.4621 70.4989 43.2019 70.081 46.194C69.6631 49.186 70.3419 52.2282 71.992 54.7589C73.6421 57.2896 76.1518 59.1377 79.0582 59.9623C81.9646 60.7868 85.0712 60.532 87.8044 59.2448C90.5375 57.9576 92.7128 55.725 93.9283 52.9592C95.1439 50.1934 95.3176 47.0813 94.4177 44.1974C93.5177 41.3135 91.6046 38.8525 89.0318 37.2689C87.0652 36.0538 84.7989 35.4109 82.4872 35.4122Z" fill="black"/>
    <path d="M111.73 86.6226C111.73 86.6226 120.368 80.326 117.555 72.8124C114.741 65.2989 112.807 65.7594 111.575 61.7021C110.343 57.6449 103.646 53.1063 97.0533 54.4188C97.0533 54.4188 89.5788 47.7575 82.2118 49.0042C74.8448 50.251 72.0254 53.4741 69.49 58.9365C66.9546 64.399 64.7061 66.7251 62.7836 70.5073C60.8611 74.2894 57.5694 85.0798 72.2078 94.4919C86.8461 103.904 111.73 86.6226 111.73 86.6226Z" fill="#7E74C1"/>
    <path d="M84.1193 48.8487C90.8285 48.8487 97.0744 54.4188 97.0744 54.4188C97.8542 54.2642 98.6473 54.1871 99.4423 54.1886C105.198 54.1886 110.52 58.1322 111.596 61.7021C112.816 65.7594 114.753 65.29 117.576 72.8124C120.398 80.3349 111.752 86.6226 111.752 86.6226C111.752 86.6226 96.3866 97.2964 82.702 97.2964C78.9767 97.2964 75.3709 96.5041 72.2375 94.4919C57.5872 85.0798 60.9001 74.2865 62.8136 70.5073C64.7271 66.7281 66.9844 64.399 69.5198 58.9365C72.0552 53.4741 74.8656 50.248 82.2416 49.0042C82.8649 48.8993 83.4962 48.8473 84.1283 48.8487H84.1193ZM84.1283 47.9518C83.4462 47.9511 82.765 48.0071 82.0921 48.1192C74.3424 49.4258 71.3287 52.9359 68.7066 58.5598C67.5465 61.0261 66.196 63.3982 64.6674 65.6547C63.7 67.0859 62.8133 68.5702 62.0122 70.1006C60.3828 73.3224 59.8297 76.9818 60.4337 80.5412C61.4144 86.0994 65.2174 91.0476 71.7502 95.2453C74.7939 97.2007 78.4774 98.1933 82.6991 98.1933C89.9346 98.1933 97.5946 95.2423 102.731 92.7697C106.03 91.1975 109.21 89.3889 112.248 87.3581H112.263C113.851 86.1355 115.255 84.6905 116.431 83.0676C118.978 79.5247 119.66 75.8711 118.401 72.5045C116.795 68.217 115.456 66.4351 114.38 65.0059C113.548 63.9027 112.947 63.1044 112.451 61.454C111.291 57.5971 105.661 53.3006 99.4394 53.3006C98.7383 53.3009 98.0384 53.3579 97.3465 53.4711C95.9173 52.2751 90.2784 47.9608 84.1313 47.9608L84.1283 47.9518Z" fill="black"/>
    <path d="M76.8303 83.7195C76.7504 83.7198 76.6718 83.6986 76.6028 83.6581C76.5339 83.6176 76.4771 83.5593 76.4385 83.4893C75.3531 81.5339 75.1351 79.9373 75.7958 78.7474C76.7436 77.0312 79.1264 76.8817 79.2251 76.8787C79.3434 76.873 79.4594 76.9139 79.5477 76.9928C79.6361 77.0717 79.6898 77.1821 79.6975 77.3003C79.7012 77.359 79.6931 77.4179 79.6739 77.4736C79.6546 77.5292 79.6246 77.5805 79.5854 77.6244C79.5462 77.6683 79.4986 77.704 79.4455 77.7295C79.3925 77.7549 79.3347 77.7696 79.2759 77.7727C79.24 77.7727 77.2817 77.9072 76.585 79.1839C76.0857 80.0808 76.3041 81.3874 77.228 83.0528C77.2821 83.1555 77.2942 83.2752 77.2618 83.3868C77.2295 83.4983 77.1552 83.5929 77.0545 83.6507C76.9874 83.6935 76.9099 83.7173 76.8303 83.7195Z" fill="black"/>
    <path d="M85.3811 100.929L84.4841 107.094C83.4526 114.237 69.0866 112.105 66.7725 105.845C66.7725 105.845 72.4531 100.164 76.7315 86.1116C76.7315 86.1116 71.0149 84.6615 72.1002 79.5339C73.1855 74.4063 77.3533 73.6797 79.7512 75.1567C79.7512 75.1567 89.0857 82.138 99.5023 62.5276C99.5023 62.5276 109.53 67.0423 111.279 77.6234C113.028 88.2045 110.544 100.301 102.361 103.527C94.1773 106.754 85.3811 100.929 85.3811 100.929Z" fill="#FFCDB2"/>
    <path d="M99.5079 62.5335C99.5079 62.5335 109.536 67.0482 111.285 77.6293C113.034 88.2104 110.55 100.307 102.366 103.533C100.674 104.191 98.8718 104.521 97.0562 104.508C90.7775 104.508 85.3809 100.92 85.3809 100.92L84.4839 107.085C84.0324 110.216 81.0158 111.57 77.5775 111.57C73.1734 111.57 68.0728 109.355 66.7722 105.839C66.7722 105.839 72.4528 100.158 76.7313 86.1055C76.7313 86.1055 71.0146 84.6555 72.1 79.5279C72.8654 75.9042 75.1825 74.478 77.3202 74.478C78.1769 74.4744 79.018 74.7072 79.751 75.1507C81.0174 75.9639 82.4981 76.3804 84.0027 76.3467C87.7042 76.3467 93.4177 73.9548 99.5021 62.5096L99.5079 62.5335ZM99.5021 61.6127C99.339 61.6129 99.1789 61.6575 99.0393 61.7418C98.8997 61.8261 98.7858 61.9468 98.7097 62.091C92.8436 73.1356 87.474 75.4527 84.0027 75.4527C82.6916 75.4758 81.4018 75.1186 80.2894 74.4242L80.2205 74.3763C79.3469 73.8448 78.3428 73.5663 77.3202 73.5721C74.9612 73.5721 72.121 75.0849 71.2211 79.3335C70.7039 81.7852 71.475 83.896 73.4603 85.4328C74.1203 85.9368 74.8469 86.3473 75.6192 86.6527C71.4872 99.7363 66.1922 105.136 66.1383 105.19C66.0173 105.311 65.9334 105.465 65.8969 105.632C65.8603 105.799 65.8725 105.974 65.9319 106.135C67.4478 110.237 73.0628 112.452 77.5775 112.452C81.9845 112.452 84.8967 110.488 85.3721 107.202L86.0717 102.358C88.057 103.441 92.2815 105.384 97.0504 105.384C98.9786 105.397 100.892 105.045 102.689 104.347C106.756 102.744 109.769 99.0187 111.405 93.5832C112.831 88.8383 113.1 83.1187 112.164 77.4708C111.417 72.9412 109.055 68.7793 105.335 65.4337C103.699 63.9388 101.86 62.6827 99.8729 61.7023C99.7565 61.6493 99.63 61.6218 99.5021 61.6216V61.6127Z" fill="black"/>
    <path d="M99.3257 78.2002C93.3729 78.7474 85.8444 75.2731 84.2538 77.1866C82.6632 79.1001 83.3569 82.0033 86.4215 83.0617C89.4861 84.1201 92.6192 84.3982 99.0743 84.6523C105.529 84.9064 111.865 84.6762 111.542 81.1721C111.219 77.668 108.086 77.3929 99.3257 78.2002Z" fill="#FFB49F"/>
    <path d="M105.709 75.0489H105.632C104.265 74.7562 102.994 74.1262 101.933 73.2161C101.843 73.1368 101.789 73.0252 101.782 72.9057C101.775 72.7863 101.815 72.6689 101.894 72.5793C101.974 72.4897 102.085 72.4353 102.205 72.428C102.324 72.4207 102.441 72.4611 102.531 72.5404C103.47 73.3397 104.59 73.8971 105.793 74.1639C105.912 74.1738 106.022 74.2306 106.099 74.3217C106.176 74.4128 106.214 74.5308 106.204 74.6498C106.194 74.7687 106.137 74.8788 106.046 74.9559C105.955 75.033 105.837 75.0708 105.718 75.0609L105.709 75.0489Z" fill="black"/>
    <path d="M83.8622 76.4123H83.8295C78.6511 76.0326 74.0525 70.609 73.8582 70.3788C73.8169 70.3341 73.7851 70.2815 73.7648 70.2242C73.7444 70.1669 73.736 70.106 73.7399 70.0453C73.7438 69.9846 73.76 69.9254 73.7875 69.8711C73.8151 69.8169 73.8533 69.7688 73.9 69.7298C73.9466 69.6908 74.0008 69.6618 74.0591 69.6444C74.1174 69.627 74.1785 69.6216 74.2389 69.6286C74.2994 69.6356 74.3579 69.6548 74.4106 69.6851C74.4634 69.7154 74.5096 69.7561 74.5461 69.8047C74.5909 69.8555 79.0965 75.1655 83.8952 75.5153C84.0142 75.5197 84.1266 75.5711 84.2077 75.6583C84.2887 75.7455 84.3317 75.8613 84.3274 75.9802C84.323 76.0992 84.2715 76.2115 84.1843 76.2926C84.0971 76.3736 83.9812 76.4167 83.8622 76.4123Z" fill="black"/>
    <path d="M83.5214 73.0815C82.4111 73.0754 81.306 72.9287 80.2325 72.645C80.1721 72.6339 80.1145 72.6105 80.0635 72.5763C80.0124 72.542 79.9688 72.4976 79.9356 72.4458C79.9024 72.3941 79.8803 72.336 79.8705 72.2753C79.8607 72.2146 79.8635 72.1526 79.8787 72.093C79.8939 72.0334 79.9213 71.9776 79.959 71.929C79.9966 71.8804 80.044 71.8401 80.0979 71.8106C80.1519 71.781 80.2113 71.7629 80.2725 71.7573C80.3338 71.7517 80.3955 71.7587 80.4539 71.778C90.2875 74.2984 94.2071 64.4289 94.3745 64.0043C94.3957 63.9494 94.4276 63.8991 94.4682 63.8564C94.5088 63.8138 94.5574 63.7795 94.6113 63.7557C94.6651 63.7318 94.7232 63.7187 94.7821 63.7173C94.841 63.7159 94.8997 63.726 94.9547 63.7472C95.0096 63.7684 95.0597 63.8002 95.1024 63.8408C95.1451 63.8815 95.1795 63.9301 95.2034 63.984C95.2273 64.0378 95.2402 64.0959 95.2417 64.1548C95.2431 64.2137 95.2328 64.2723 95.2116 64.3272C95.1638 64.4259 91.7375 73.0815 83.5214 73.0815Z" fill="white"/>
    <path d="M70.8385 37.0777C70.7897 37.077 70.7411 37.069 70.6948 37.0538C70.6388 37.0353 70.5872 37.0058 70.5427 36.9671C70.4982 36.9284 70.462 36.8813 70.4358 36.8285C70.4097 36.7756 70.3943 36.7181 70.3906 36.6593C70.3868 36.6004 70.3947 36.5414 70.4139 36.4857C71.3109 33.7948 72.8625 31.9053 75.0032 30.8528C78.7704 29.0021 82.9981 30.4283 83.1774 30.491C83.2896 30.5307 83.3816 30.6133 83.4329 30.7207C83.4842 30.8281 83.4907 30.9514 83.451 31.0636C83.4114 31.1758 83.3289 31.2677 83.2215 31.319C83.1142 31.3703 82.9907 31.3768 82.8785 31.3372C82.8366 31.3372 78.8153 29.9738 75.3889 31.6601C73.4724 32.6049 72.0823 34.324 71.2571 36.7727C71.2279 36.8608 71.1716 36.9376 71.0966 36.9923C71.0215 37.047 70.9313 37.0768 70.8385 37.0777Z" fill="black"/>
    <path d="M100.109 88.9098C100.007 88.9101 99.9087 88.8756 99.8292 88.812C99.7498 88.7483 99.6943 88.6594 99.6725 88.56L97.5527 79.127C97.5265 79.0108 97.5477 78.889 97.6114 78.7884C97.675 78.6877 97.7761 78.6165 97.8923 78.5903C98.0084 78.5642 98.13 78.5852 98.2307 78.6489C98.3313 78.7125 98.4028 78.8135 98.4289 78.9297L100.546 88.3627C100.559 88.4202 100.561 88.4798 100.551 88.538C100.541 88.5962 100.52 88.6519 100.489 88.7019C100.457 88.7519 100.416 88.7952 100.368 88.8294C100.32 88.8635 100.265 88.8878 100.208 88.9008L100.109 88.9098Z" fill="black"/>
    <path d="M74.3904 87.7379C75.4406 87.7379 76.2921 86.8866 76.2921 85.8364C76.2921 84.7862 75.4406 83.9348 74.3904 83.9348C73.3402 83.9348 72.4888 84.7862 72.4888 85.8364C72.4888 86.8866 73.3402 87.7379 74.3904 87.7379Z" fill="#00D7AD"/>
    <path d="M74.3934 83.9348C74.8145 83.9361 75.2233 84.0771 75.5555 84.3357C75.8878 84.5943 76.1248 84.9559 76.2294 85.3637C76.3341 85.7715 76.3003 86.2025 76.1336 86.5891C75.967 86.9758 75.6769 87.2961 75.3085 87.5C74.9401 87.7039 74.5144 87.7798 74.0983 87.7158C73.6821 87.6517 73.2992 87.4514 73.0092 87.1462C72.7192 86.841 72.5386 86.4481 72.4959 86.0293C72.4532 85.6104 72.5505 85.1892 72.773 84.8318C72.9436 84.5559 73.1824 84.3286 73.4661 84.1715C73.7499 84.0145 74.0691 83.9329 74.3934 83.9348ZM74.3934 83.0378C73.7169 83.0363 73.0627 83.2797 72.5517 83.723C72.0406 84.1663 71.7071 84.7796 71.6129 85.4496C71.5188 86.1195 71.6704 86.8009 72.0395 87.3679C72.4087 87.9349 72.9704 88.3491 73.6212 88.5341C74.2719 88.7191 74.9679 88.6623 75.58 88.3743C76.1922 88.0862 76.6794 87.5864 76.9518 86.9671C77.2241 86.3478 77.263 85.6509 77.0615 85.005C76.8601 84.3592 76.4319 83.808 75.8557 83.4534C75.4163 83.182 74.9099 83.0381 74.3934 83.0378Z" fill="black"/>
    <path d="M74.7311 44.8514C74.6603 44.8505 74.5908 44.8331 74.5279 44.8005C74.4236 44.7463 74.3447 44.6532 74.3084 44.5413C74.272 44.4295 74.281 44.3078 74.3335 44.2026C75.7178 41.5326 77.5628 39.8822 79.8171 39.3052C83.4677 38.3664 86.8253 40.5759 86.9688 40.6716C87.02 40.7033 87.0641 40.7451 87.0988 40.7943C87.1334 40.8435 87.1579 40.8993 87.1706 40.9581C87.1833 41.017 87.184 41.0778 87.1726 41.137C87.1613 41.1961 87.1381 41.2523 87.1046 41.3024C87.0711 41.3524 87.0277 41.3951 86.9773 41.428C86.9269 41.4609 86.8704 41.4834 86.8112 41.494C86.7519 41.5046 86.6912 41.5032 86.6325 41.4898C86.5738 41.4764 86.5183 41.4513 86.4695 41.416C86.4367 41.3951 83.2912 39.3231 80.0323 40.1752C78.0411 40.6895 76.3908 42.1844 75.132 44.6152C75.093 44.6872 75.035 44.7472 74.9644 44.7888C74.8939 44.8304 74.8131 44.8521 74.7311 44.8514Z" fill="white"/>
    <path d="M88.4547 81.776C89.1152 81.776 89.6507 81.2406 89.6507 80.5801C89.6507 79.9196 89.1152 79.3842 88.4547 79.3842C87.7942 79.3842 87.2588 79.9196 87.2588 80.5801C87.2588 81.2406 87.7942 81.776 88.4547 81.776Z" fill="black"/>
    <path d="M105.945 82.8225C106.606 82.8225 107.141 82.2871 107.141 81.6266C107.141 80.9661 106.606 80.4307 105.945 80.4307C105.285 80.4307 104.75 80.9661 104.75 81.6266C104.75 82.2871 105.285 82.8225 105.945 82.8225Z" fill="black"/>
    <path d="M97.4393 97.8316C96.656 97.849 95.8958 97.5667 95.3137 97.0423C95.2341 96.9576 95.1902 96.8453 95.1917 96.7291C95.1932 96.6129 95.2398 96.5018 95.3216 96.4193C95.4034 96.3367 95.514 96.2891 95.6302 96.2865C95.7464 96.2839 95.859 96.3266 95.9444 96.4054C96.0042 96.4622 97.245 97.6193 99.2811 96.3456C99.3814 96.2934 99.4976 96.2809 99.6067 96.3108C99.7157 96.3406 99.8095 96.4105 99.8692 96.5065C99.9289 96.6024 99.9502 96.7174 99.9287 96.8284C99.9073 96.9394 99.8447 97.0382 99.7536 97.105C99.0669 97.5622 98.2641 97.8142 97.4393 97.8316Z" fill="black"/>
    <path d="M89.0525 73.5539C88.954 73.5534 88.8583 73.5203 88.7804 73.46C88.7025 73.3996 88.6464 73.3153 88.6213 73.22C88.5961 73.1247 88.6032 73.0238 88.6411 72.9328C88.6791 72.8419 88.7458 72.7659 88.8312 72.7167C89.0166 72.6091 93.3877 70.1514 95.1099 72.5463C95.1725 72.6432 95.1955 72.7606 95.1738 72.8739C95.1522 72.9873 95.0876 73.0879 94.9937 73.1549C94.8997 73.2219 94.7835 73.2501 94.6693 73.2336C94.5551 73.2172 94.4518 73.1573 94.3805 73.0666C93.1577 71.3564 89.3247 73.4732 89.2978 73.4941C89.224 73.5384 89.1384 73.5593 89.0525 73.5539Z" fill="black"/>
    <path d="M86.4187 102.454C86.3762 102.454 86.3337 102.448 86.2929 102.436C83.2014 101.539 80.3612 98.7016 80.2416 98.582C80.1576 98.4975 80.1106 98.3832 80.1108 98.264C80.1111 98.1449 80.1587 98.0307 80.2431 97.9466C80.3276 97.8626 80.4419 97.8155 80.5611 97.8158C80.6802 97.8161 80.7944 97.8637 80.8785 97.9481C80.9054 97.978 83.677 100.732 86.5592 101.575C86.6628 101.605 86.7521 101.672 86.8106 101.762C86.8691 101.853 86.8927 101.962 86.8774 102.069C86.8622 102.176 86.8089 102.273 86.7274 102.344C86.6458 102.415 86.5416 102.454 86.4336 102.454H86.4187Z" fill="black"/>
    <path d="M36.4312 149.048C36.4312 149.048 55.2672 120.046 73.2064 151.44L36.4312 149.048Z" fill="#00D7AD"/>
    <path d="M73.2064 151.888C73.1272 151.888 73.0493 151.868 72.9809 151.828C72.9126 151.788 72.8563 151.73 72.8177 151.661C67.4719 142.309 61.546 137.474 55.2015 137.292C44.9314 136.993 36.8885 149.17 36.8078 149.293C36.7428 149.393 36.6409 149.463 36.5243 149.488C36.4076 149.512 36.2858 149.489 36.1859 149.424C36.086 149.359 36.0161 149.257 35.9914 149.141C35.9667 149.024 35.9895 148.903 36.0545 148.803C36.3923 148.285 44.4261 136.096 55.2255 136.395C61.9048 136.586 68.0817 141.573 73.595 151.218C73.6496 151.32 73.6627 151.44 73.6315 151.551C73.6003 151.662 73.5273 151.758 73.4277 151.816C73.362 151.86 73.2854 151.885 73.2064 151.888Z" fill="black"/>
    <path d="M121.642 166.688C121.642 166.688 130.767 163.118 133.081 159.073L135.395 155.027" fill="#FFCDB2"/>
    <path d="M121.642 167.136C121.537 167.137 121.435 167.101 121.354 167.035C121.273 166.968 121.217 166.875 121.198 166.772C121.178 166.668 121.195 166.562 121.247 166.47C121.298 166.378 121.379 166.307 121.478 166.269C121.567 166.237 130.483 162.712 132.692 158.852L135.007 154.803C135.036 154.752 135.075 154.708 135.122 154.672C135.169 154.636 135.222 154.609 135.279 154.594C135.336 154.579 135.395 154.575 135.454 154.583C135.512 154.59 135.568 154.609 135.619 154.639C135.671 154.668 135.715 154.708 135.751 154.754C135.787 154.801 135.813 154.854 135.829 154.911C135.844 154.968 135.848 155.028 135.84 155.086C135.833 155.144 135.813 155.201 135.784 155.252L133.47 159.297C131.105 163.432 122.183 166.957 121.809 167.107C121.756 167.127 121.699 167.137 121.642 167.136Z" fill="black"/>
    <path d="M124.034 180.142C124.034 180.142 135.097 177.452 138.087 170.575L124.034 180.142Z" fill="#FFCDB2"/>
    <path d="M124.034 180.591C123.915 180.605 123.795 180.571 123.701 180.496C123.608 180.422 123.547 180.314 123.533 180.195C123.519 180.076 123.553 179.956 123.628 179.862C123.702 179.768 123.811 179.708 123.93 179.694C124.037 179.667 134.81 176.973 137.683 170.383C137.73 170.274 137.819 170.188 137.93 170.144C138.041 170.1 138.165 170.103 138.275 170.15C138.384 170.198 138.47 170.287 138.514 170.398C138.558 170.509 138.556 170.633 138.508 170.742C135.464 177.741 124.608 180.453 124.157 180.567C124.117 180.581 124.076 180.589 124.034 180.591Z" fill="black"/>
    <path d="M132.106 142.022C132.026 142.021 131.947 142 131.877 141.959C131.808 141.918 131.751 141.859 131.712 141.788C128.052 135.076 131.559 128.199 131.712 127.912C131.737 127.857 131.774 127.808 131.819 127.767C131.864 127.727 131.916 127.695 131.974 127.676C132.031 127.656 132.092 127.648 132.152 127.653C132.213 127.657 132.272 127.674 132.326 127.702C132.38 127.73 132.427 127.768 132.466 127.815C132.504 127.862 132.533 127.916 132.55 127.975C132.567 128.033 132.572 128.094 132.564 128.154C132.557 128.214 132.537 128.273 132.507 128.325C132.471 128.394 129.078 135.076 132.507 141.358C132.56 141.461 132.571 141.581 132.537 141.693C132.504 141.804 132.429 141.898 132.328 141.956C132.261 141.996 132.185 142.018 132.106 142.022Z" fill="black"/>
    <path d="M104.75 154.878C104.616 154.878 104.486 154.833 104.381 154.751C104.276 154.668 104.201 154.553 104.169 154.424L99.6846 136.185C99.6649 136.109 99.6607 136.03 99.6717 135.952C99.6827 135.874 99.7088 135.799 99.7488 135.732C99.7888 135.664 99.8419 135.605 99.9047 135.557C99.9676 135.51 100.039 135.476 100.115 135.456C100.191 135.436 100.271 135.432 100.349 135.443C100.426 135.454 100.502 135.48 100.569 135.52C100.637 135.56 100.696 135.613 100.743 135.676C100.791 135.739 100.825 135.81 100.845 135.886L105.33 154.125C105.368 154.278 105.343 154.441 105.261 154.577C105.179 154.712 105.047 154.81 104.893 154.848C104.847 154.864 104.798 154.874 104.75 154.878Z" fill="white"/>
    <path d="M120.168 189.429C118.462 189.436 116.759 189.275 115.085 188.947C115.009 188.93 114.936 188.897 114.872 188.851C114.808 188.806 114.754 188.748 114.712 188.681C114.671 188.615 114.642 188.541 114.629 188.463C114.617 188.386 114.619 188.306 114.637 188.23C114.654 188.153 114.687 188.081 114.733 188.017C114.778 187.953 114.836 187.899 114.902 187.857C114.969 187.815 115.043 187.787 115.121 187.774C115.198 187.761 115.278 187.764 115.354 187.781C115.492 187.811 129.287 190.834 133.811 180.94C133.843 180.869 133.89 180.805 133.947 180.751C134.004 180.698 134.072 180.656 134.146 180.628C134.219 180.601 134.297 180.588 134.376 180.591C134.454 180.594 134.531 180.612 134.603 180.644C134.674 180.677 134.739 180.723 134.792 180.781C134.846 180.838 134.887 180.906 134.915 180.979C134.942 181.053 134.955 181.131 134.953 181.21C134.95 181.288 134.931 181.365 134.899 181.437C131.822 188.152 124.952 189.429 120.168 189.429Z" fill="white"/>
    <path d="M58.4064 231.418C58.3402 231.419 58.2743 231.408 58.212 231.385C50.1962 228.629 44.0163 220.401 40.3417 207.589C38.6403 201.516 37.5801 195.281 37.1785 188.986C37.1753 188.908 37.1878 188.829 37.215 188.755C37.2421 188.682 37.2834 188.614 37.3367 188.556C37.39 188.499 37.4543 188.452 37.5256 188.419C37.597 188.386 37.674 188.367 37.7525 188.364C37.831 188.361 37.9094 188.373 37.9831 188.401C38.0569 188.428 38.1245 188.469 38.1823 188.523C38.24 188.576 38.2868 188.64 38.3198 188.711C38.3527 188.783 38.3713 188.86 38.3744 188.938C38.7705 195.145 39.8168 201.293 41.4959 207.281C43.9805 215.934 48.9706 226.942 58.6009 230.255C58.7344 230.301 58.8473 230.393 58.9194 230.515C58.9916 230.636 59.0183 230.779 58.9951 230.919C58.9718 231.058 58.8999 231.185 58.7921 231.276C58.6844 231.368 58.5477 231.418 58.4064 231.418Z" fill="white"/>
    <path d="M181.589 156.971C181.493 156.971 181.399 156.947 181.314 156.903C181.229 156.859 181.156 156.795 181.101 156.717C181.046 156.639 181.01 156.549 180.997 156.454C180.984 156.359 180.994 156.263 181.027 156.173C184.549 146.33 183.717 137.28 178.533 129.264C176.199 125.646 173.167 122.531 169.614 120.1C169.487 120.013 169.398 119.881 169.366 119.73C169.333 119.58 169.36 119.422 169.441 119.291C169.522 119.16 169.651 119.065 169.8 119.026C169.949 118.988 170.108 119.008 170.242 119.083C173.944 121.585 177.097 124.814 179.511 128.573C183.233 134.311 186.713 143.821 182.151 156.567C182.11 156.684 182.035 156.786 181.934 156.859C181.833 156.931 181.713 156.97 181.589 156.971Z" fill="white"/>
    <path d="M209.544 117.804C209.445 117.804 209.349 117.771 209.271 117.711C209.192 117.651 209.136 117.567 209.11 117.471C209.085 117.376 209.091 117.275 209.129 117.184C209.167 117.092 209.234 117.016 209.32 116.967C230.957 104.382 239.338 85.34 242.555 71.5837C246.047 56.6643 244.397 44.5853 244.379 44.4657C244.37 44.4068 244.374 44.3469 244.389 44.2893C244.404 44.2317 244.43 44.1777 244.466 44.1302C244.501 44.0827 244.546 44.0428 244.598 44.0126C244.649 43.9825 244.705 43.9627 244.764 43.9544C244.823 43.9462 244.883 43.9496 244.941 43.9646C244.998 43.9795 245.052 44.0056 245.1 44.0414C245.147 44.0772 245.187 44.122 245.217 44.1733C245.248 44.2245 245.267 44.2813 245.276 44.3402C245.29 44.4627 246.965 56.7062 243.437 71.787C241.362 80.6489 237.927 88.7485 233.221 95.8613C227.34 104.753 219.467 112.117 209.774 117.744C209.704 117.784 209.625 117.805 209.544 117.804Z" fill="black"/>
    <path d="M214.627 130.959C214.521 130.958 214.42 130.921 214.34 130.852C214.259 130.784 214.206 130.69 214.188 130.587C214.17 130.483 214.19 130.376 214.242 130.285C214.295 130.194 214.378 130.125 214.477 130.089C228.736 125.03 237.983 117.074 243.231 111.292C248.911 105.013 251.267 99.8825 251.303 99.8287C251.327 99.7749 251.362 99.7264 251.405 99.686C251.448 99.6455 251.498 99.6139 251.553 99.593C251.608 99.572 251.667 99.5621 251.726 99.5638C251.785 99.5655 251.843 99.5788 251.897 99.603C251.951 99.6271 251.999 99.6616 252.04 99.7045C252.08 99.7474 252.111 99.7979 252.132 99.853C252.153 99.9081 252.163 99.9668 252.162 100.026C252.16 100.085 252.147 100.143 252.122 100.196C252.027 100.412 249.71 105.494 243.936 111.857C238.614 117.726 229.241 125.799 214.788 130.926C214.737 130.948 214.682 130.959 214.627 130.959Z" fill="black"/>
    <path d="M125.08 106.741H125.063C124.984 106.739 124.907 106.721 124.835 106.689C124.763 106.657 124.699 106.611 124.645 106.554C124.591 106.496 124.549 106.429 124.521 106.356C124.493 106.282 124.48 106.204 124.482 106.125C124.76 96.6864 118.706 95.9988 118.449 95.9599C118.291 95.9455 118.145 95.8691 118.044 95.7475C117.943 95.6258 117.894 95.4689 117.908 95.3111C117.922 95.154 117.998 95.0088 118.119 94.9075C118.24 94.8061 118.396 94.7567 118.554 94.7699C118.628 94.7699 125.989 95.5383 125.678 106.131C125.68 106.211 125.666 106.29 125.636 106.364C125.607 106.438 125.563 106.505 125.508 106.562C125.452 106.619 125.385 106.664 125.312 106.695C125.239 106.725 125.16 106.741 125.08 106.741Z" fill="black"/>
    <path d="M37.7766 177.9C37.6784 177.899 37.5818 177.875 37.4954 177.828C26.0622 171.723 19.027 159.154 15.1342 149.685C12.5878 143.482 10.6612 137.042 9.38198 130.46C9.36456 130.381 9.36325 130.299 9.37847 130.219C9.39369 130.14 9.42506 130.064 9.47044 129.997C9.51583 129.93 9.57452 129.872 9.64271 129.828C9.71091 129.785 9.78729 129.755 9.86724 129.742C9.9472 129.728 10.0288 129.731 10.1075 129.751C10.1863 129.77 10.2606 129.805 10.3254 129.854C10.3902 129.902 10.4441 129.964 10.4845 130.034C10.5248 130.104 10.5505 130.182 10.5598 130.263C11.822 136.765 13.7249 143.127 16.2405 149.254C20.0556 158.523 26.9355 170.838 38.0458 176.761C38.1627 176.824 38.2552 176.924 38.3088 177.046C38.3624 177.167 38.374 177.303 38.3418 177.432C38.3096 177.561 38.2352 177.675 38.1307 177.757C38.0262 177.84 37.8974 177.884 37.7646 177.885L37.7766 177.9Z" fill="black"/>
    <path d="M33.2919 187.467C33.2267 187.468 33.1619 187.457 33.1007 187.435C23.8321 184.292 18.6116 178.83 15.867 174.799C12.8771 170.416 12.1088 166.811 12.0759 166.661C12.0434 166.506 12.074 166.344 12.1609 166.211C12.2478 166.078 12.3839 165.985 12.5393 165.953C12.6947 165.92 12.8566 165.951 12.9895 166.037C13.1224 166.124 13.2154 166.261 13.2479 166.416C13.2778 166.556 16.3961 180.51 33.4832 186.304C33.6165 186.351 33.7292 186.442 33.8014 186.563C33.8736 186.685 33.9005 186.827 33.8776 186.967C33.8547 187.106 33.7837 187.232 33.6765 187.324C33.5693 187.416 33.433 187.467 33.2919 187.467Z" fill="black"/>
    <path d="M89.1421 137.896C90.4863 137.896 91.5761 136.806 91.5761 135.462C91.5761 134.118 90.4863 133.028 89.1421 133.028C87.798 133.028 86.7085 134.118 86.7085 135.462C86.7085 136.806 87.798 137.896 89.1421 137.896Z" fill="#4AEBD7"/>
    <path d="M62.8316 128.328C64.1757 128.328 65.2655 127.238 65.2655 125.894C65.2655 124.55 64.1757 123.461 62.8316 123.461C61.4875 123.461 60.3979 124.55 60.3979 125.894C60.3979 127.238 61.4875 128.328 62.8316 128.328Z" fill="#4AEBD7"/>
    <path d="M46.9854 160.32C48.3295 160.32 49.4193 159.23 49.4193 157.886C49.4193 156.542 48.3295 155.452 46.9854 155.452C45.6413 155.452 44.5518 156.542 44.5518 157.886C44.5518 159.23 45.6413 160.32 46.9854 160.32Z" fill="#4AEBD7"/>
    <path d="M86.7503 167.495C88.0944 167.495 89.1842 166.406 89.1842 165.061C89.1842 163.717 88.0944 162.628 86.7503 162.628C85.4062 162.628 84.3167 163.717 84.3167 165.061C84.3167 166.406 85.4062 167.495 86.7503 167.495Z" fill="#4AEBD7"/>
    <path d="M49.6761 200.085C51.0202 200.085 52.11 198.995 52.11 197.651C52.11 196.307 51.0202 195.217 49.6761 195.217C48.332 195.217 47.2424 196.307 47.2424 197.651C47.2424 198.995 48.332 200.085 49.6761 200.085Z" fill="#4AEBD7"/>
    <path d="M81.9664 189.022C83.3105 189.022 84.4003 187.932 84.4003 186.588C84.4003 185.244 83.3105 184.155 81.9664 184.155C80.6222 184.155 79.5327 185.244 79.5327 186.588C79.5327 187.932 80.6222 189.022 81.9664 189.022Z" fill="#4AEBD7"/>
    <path d="M93.9258 212.343C95.2699 212.343 96.3598 211.253 96.3598 209.909C96.3598 208.565 95.2699 207.476 93.9258 207.476C92.5817 207.476 91.4922 208.565 91.4922 209.909C91.4922 211.253 92.5817 212.343 93.9258 212.343Z" fill="#4AEBD7"/>
    <path d="M65.8213 216.529C67.1655 216.529 68.2553 215.439 68.2553 214.095C68.2553 212.751 67.1655 211.661 65.8213 211.661C64.4772 211.661 63.3877 212.751 63.3877 214.095C63.3877 215.439 64.4772 216.529 65.8213 216.529Z" fill="#4AEBD7"/>
    <path d="M128.608 207.858C129.952 207.858 131.042 206.769 131.042 205.425C131.042 204.08 129.952 202.991 128.608 202.991C127.264 202.991 126.175 204.08 126.175 205.425C126.175 206.769 127.264 207.858 128.608 207.858Z" fill="#4AEBD7"/>
    <path d="M147.145 190.816C148.489 190.816 149.579 189.727 149.579 188.383C149.579 187.038 148.489 185.949 147.145 185.949C145.801 185.949 144.712 187.038 144.712 188.383C144.712 189.727 145.801 190.816 147.145 190.816Z" fill="#4AEBD7"/>
    <path d="M147.145 212.642C148.489 212.642 149.579 211.553 149.579 210.208C149.579 208.864 148.489 207.775 147.145 207.775C145.801 207.775 144.712 208.864 144.712 210.208C144.712 211.553 145.801 212.642 147.145 212.642Z" fill="#4AEBD7"/>
    <path d="M157.61 164.505C158.954 164.505 160.044 163.416 160.044 162.072C160.044 160.728 158.954 159.638 157.61 159.638C156.266 159.638 155.176 160.728 155.176 162.072C155.176 163.416 156.266 164.505 157.61 164.505Z" fill="#4AEBD7"/>
    <path d="M169.868 143.875C171.212 143.875 172.302 142.786 172.302 141.442C172.302 140.097 171.212 139.008 169.868 139.008C168.524 139.008 167.435 140.097 167.435 141.442C167.435 142.786 168.524 143.875 169.868 143.875Z" fill="#4AEBD7"/>
    <path d="M155.218 119.657C156.562 119.657 157.652 118.568 157.652 117.224C157.652 115.88 156.562 114.79 155.218 114.79C153.874 114.79 152.784 115.88 152.784 117.224C152.784 118.568 153.874 119.657 155.218 119.657Z" fill="#4AEBD7"/>
    <path d="M101.999 113.977C103.343 113.977 104.433 112.887 104.433 111.543C104.433 110.199 103.343 109.109 101.999 109.109C100.654 109.109 99.5649 110.199 99.5649 111.543C99.5649 112.887 100.654 113.977 101.999 113.977Z" fill="#4AEBD7"/>
</svg>
