<svg width="768" height="587" viewBox="0 0 768 587" fill="none" xmlns="http://www.w3.org/2000/svg">
    <path d="M666.763 564.646H63.4586C63.022 564.646 62.6035 564.473 62.2948 564.164C61.9861 563.856 61.8125 563.437 61.8125 563C61.8125 562.564 61.9861 562.145 62.2948 561.836C62.6035 561.528 63.022 561.354 63.4586 561.354H666.763C667.2 561.354 667.618 561.528 667.927 561.836C668.236 562.145 668.409 562.564 668.409 563C668.409 563.437 668.236 563.856 667.927 564.164C667.618 564.473 667.2 564.646 666.763 564.646Z" fill="#1D1D1B"/>
    <path d="M727.67 586.869H634.664C634.228 586.869 633.809 586.696 633.5 586.387C633.192 586.078 633.018 585.66 633.018 585.223C633.018 584.786 633.192 584.368 633.5 584.059C633.809 583.75 634.228 583.577 634.664 583.577H727.67C728.107 583.577 728.525 583.75 728.834 584.059C729.143 584.368 729.316 584.786 729.316 585.223C729.316 585.66 729.143 586.078 728.834 586.387C728.525 586.696 728.107 586.869 727.67 586.869Z" fill="#1D1D1B"/>
    <path d="M125.188 586.869H18.1901C17.7535 586.869 17.3349 586.696 17.0262 586.387C16.7175 586.078 16.5439 585.66 16.5439 585.223C16.5439 584.786 16.7175 584.368 17.0262 584.059C17.3349 583.75 17.7535 583.577 18.1901 583.577H125.188C125.625 583.577 126.043 583.75 126.352 584.059C126.661 584.368 126.834 584.786 126.834 585.223C126.834 585.66 126.661 586.078 126.352 586.387C126.043 586.696 125.625 586.869 125.188 586.869Z" fill="#1D1D1B"/>
    <path d="M390.593 127.189H128.102C99.4459 127.189 76.2158 150.42 76.2158 179.075V360.906C76.2158 389.562 99.4459 412.792 128.102 412.792H390.593C419.248 412.792 442.479 389.562 442.479 360.906V179.075C442.479 150.42 419.248 127.189 390.593 127.189Z" fill="#FFCB89"/>
    <path d="M390.592 127.189C404.345 127.189 417.534 132.653 427.258 142.377C436.982 152.101 442.445 165.29 442.445 179.042V360.873C442.445 374.625 436.982 387.815 427.258 397.539C417.534 407.263 404.345 412.726 390.592 412.726H128.101C114.349 412.726 101.16 407.263 91.4358 397.539C81.7114 387.815 76.2485 374.625 76.2485 360.873V179.075C76.2485 165.323 81.7114 152.134 91.4358 142.41C101.16 132.685 114.349 127.222 128.101 127.222H390.592V127.189ZM390.592 124.753H128.101C113.702 124.779 99.9006 130.511 89.7189 140.693C79.5372 150.874 73.8054 164.676 73.7793 179.075V360.906C73.8054 375.305 79.5372 389.107 89.7189 399.289C99.9006 409.471 113.702 415.202 128.101 415.228H390.592C404.991 415.202 418.793 409.471 428.975 399.289C439.157 389.107 444.888 375.305 444.914 360.906V179.075C444.888 164.676 439.157 150.874 428.975 140.693C418.793 130.511 404.991 124.779 390.592 124.753Z" fill="#1D1E1B"/>
    <path d="M76.2168 360.906V324.312L165.931 253.965L228.483 292.649L305.028 197.174L442.48 306.831V360.931C442.48 374.683 437.017 387.872 427.292 397.596C417.568 407.32 404.379 412.783 390.627 412.783H128.136C121.319 412.792 114.567 411.457 108.266 408.853C101.966 406.249 96.2408 402.429 91.4185 397.611C86.5962 392.792 82.7718 387.07 80.1633 380.772C77.5548 374.474 76.2136 367.723 76.2168 360.906V360.906Z" fill="white"/>
    <path d="M390.593 414.027H128.102C114.019 414.011 100.516 408.41 90.5574 398.451C80.5987 388.492 74.9972 374.99 74.9819 360.906V323.695L75.4513 323.317L165.848 252.435L228.203 291.003L304.838 195.413L305.802 196.187L443.714 306.205V360.898C443.701 374.983 438.101 388.488 428.142 398.448C418.183 408.409 404.679 414.011 390.593 414.027V414.027ZM77.4511 324.889V360.906C77.4664 374.335 82.8076 387.209 92.3032 396.705C101.799 406.201 114.674 411.542 128.102 411.557H390.593C404.022 411.542 416.897 406.201 426.393 396.705C435.888 387.209 441.229 374.335 441.245 360.906V307.407L305.218 198.886L228.763 294.246L166.012 255.447L77.4511 324.889Z" fill="#1D1F1C"/>
    <path d="M466.759 190.573C466.43 152.375 453.039 124.119 428.075 108.86C416.491 101.86 403.354 97.8361 389.836 97.1474V94.6782C390.659 94.6782 409.746 94.8182 429.261 106.687C447.278 117.65 468.833 141.091 469.261 190.557L466.759 190.573Z" fill="#1D1F1C"/>
    <path d="M86.085 192.623C85.4372 192.623 84.8148 192.368 84.3529 191.914C83.891 191.46 83.6266 190.842 83.6158 190.195C83.3113 172.515 88.0601 158.523 97.7228 148.63C111.929 134.078 131.468 133.815 132.291 133.774C132.946 133.774 133.574 134.034 134.037 134.497C134.5 134.96 134.761 135.588 134.761 136.243C134.761 136.898 134.5 137.526 134.037 137.989C133.574 138.452 132.946 138.712 132.291 138.712C131.987 138.712 113.879 139.082 101.196 152.12C92.5126 161.034 88.2494 173.824 88.5293 190.112C88.5403 190.766 88.2916 191.397 87.838 191.867C87.3844 192.338 86.7626 192.61 86.1091 192.623H86.085Z" fill="white"/>
    <path d="M198.852 210.319C210.671 210.319 220.252 200.738 220.252 188.919C220.252 177.1 210.671 167.519 198.852 167.519C187.034 167.519 177.453 177.1 177.453 188.919C177.453 200.738 187.034 210.319 198.852 210.319Z" fill="white"/>
    <path d="M198.852 211.553C194.375 211.553 189.999 210.226 186.277 207.739C182.555 205.252 179.654 201.716 177.941 197.581C176.228 193.445 175.779 188.894 176.653 184.503C177.526 180.113 179.682 176.08 182.847 172.914C186.013 169.749 190.045 167.593 194.436 166.72C198.827 165.846 203.378 166.294 207.513 168.008C211.649 169.721 215.184 172.622 217.671 176.344C220.159 180.066 221.486 184.442 221.486 188.919C221.477 194.919 219.09 200.671 214.847 204.914C210.604 209.157 204.852 211.544 198.852 211.553ZM198.852 168.754C194.864 168.754 190.965 169.937 187.649 172.152C184.333 174.368 181.748 177.517 180.222 181.202C178.696 184.887 178.296 188.941 179.074 192.853C179.852 196.765 181.773 200.358 184.593 203.178C187.413 205.998 191.007 207.918 194.918 208.697C198.83 209.475 202.884 209.075 206.569 207.549C210.254 206.023 213.403 203.438 215.619 200.122C217.834 196.806 219.017 192.907 219.017 188.919C219.01 183.573 216.884 178.448 213.104 174.667C209.323 170.887 204.198 168.76 198.852 168.754V168.754Z" fill="#1D1F1C"/>
    <path d="M495.567 310.888C452.874 297.546 345.835 318.139 315.72 356C298.575 377.548 281.151 417.73 263.867 467.937C256.558 489.164 243.389 509.024 218.598 506.621C202.557 505.065 185.816 516.308 188.145 527.197C192.721 548.597 230.944 562.589 230.944 562.589L533.584 561.338C533.584 561.338 568.614 491.74 535.337 421.804C535.337 421.804 601.1 449.475 628.039 437.442C654.978 425.409 690.286 351.844 663.348 344.338L668.649 326.074L626.779 302.271L617.956 313.448C617.956 313.448 604.359 297.267 594.828 309.036C585.297 320.806 570.211 344.782 570.211 344.782C570.211 344.782 559.807 330.963 495.567 310.888Z" fill="#00D7AD"/>
    <path d="M230.952 563.824C230.807 563.824 230.662 563.799 230.525 563.75C228.945 563.165 191.61 549.28 186.943 527.453C186.12 523.502 187.495 519.222 190.869 515.461C197.042 508.539 208.499 504.399 218.721 505.395C238.598 507.329 253.397 494.588 262.706 467.534C281.851 411.936 298.872 375.203 314.765 355.235C328.683 337.729 360.034 322.313 400.66 313.037C437.797 304.534 475.196 303.226 495.946 309.744C549.642 326.527 565.906 338.955 570.021 342.84C573.313 337.613 585.659 318.411 593.89 308.312C596.417 305.193 599.454 303.596 602.944 303.563H603.051C609.544 303.563 615.603 309.144 617.948 311.588L625.874 301.555C626.054 301.322 626.313 301.161 626.602 301.103C626.891 301.046 627.191 301.095 627.447 301.242L669.315 325.053C669.557 325.189 669.747 325.403 669.851 325.661C669.956 325.918 669.97 326.203 669.891 326.469L664.953 343.58C670.459 345.613 673.653 350.618 674.212 358.132C676.031 382.618 649.62 429.253 628.623 438.619C604.45 449.402 551.066 429.426 537.856 424.158C553.79 459.616 552.35 494.645 548.235 518.045C543.659 544.062 534.86 561.75 534.769 561.931C534.667 562.133 534.511 562.304 534.318 562.423C534.124 562.542 533.902 562.605 533.675 562.606L231.034 563.857L230.952 563.824ZM215.619 507.716C206.927 507.716 197.832 511.37 192.713 517.107C190.705 519.354 188.49 522.868 189.363 526.983C193.577 546.696 228.187 560.26 231.174 561.396L532.819 560.153C538.901 546.55 543.243 532.233 545.741 517.543C549.897 493.888 551.264 458.175 534.218 422.372C534.114 422.148 534.08 421.897 534.121 421.653C534.163 421.409 534.276 421.183 534.448 421.005C534.62 420.827 534.842 420.705 535.084 420.655C535.327 420.605 535.578 420.63 535.806 420.726C536.465 420.998 601.388 448.052 627.529 436.364C647.858 427.311 673.423 382.042 671.661 358.313C671.135 351.309 668.229 347.021 663.011 345.572C662.694 345.484 662.424 345.274 662.262 344.988C662.105 344.698 662.066 344.359 662.155 344.041L667.183 326.757L627.084 303.958L618.919 314.304C618.805 314.447 618.662 314.563 618.498 314.644C618.335 314.725 618.155 314.769 617.973 314.773C617.793 314.773 617.616 314.733 617.454 314.656C617.292 314.579 617.149 314.468 617.035 314.329C616.96 314.247 609.989 306.098 603.042 306.098H602.952C600.227 306.098 597.907 307.382 595.833 309.934C586.458 321.514 571.461 345.325 571.305 345.556C571.2 345.725 571.055 345.867 570.883 345.967C570.711 346.067 570.517 346.124 570.318 346.132C570.118 346.144 569.918 346.105 569.737 346.021C569.556 345.936 569.399 345.807 569.28 345.646C569.173 345.515 557.955 331.761 495.204 312.164C474.85 305.802 437.953 307.127 401.211 315.547C361.079 324.741 330.271 339.803 316.691 356.865C300.987 376.618 284.089 413.113 265.044 468.439C255.99 494.818 241.718 508.152 222.664 508.152C221.298 508.152 219.907 508.086 218.492 507.946C217.545 507.757 216.549 507.716 215.619 507.716Z" fill="#1D1D1B"/>
    <path d="M188.918 323.209C173.585 323.193 158.288 321.708 143.238 318.773C118.663 314.007 94.9999 305.372 73.1299 293.192C45.8948 278.015 21.4166 257.233 0.370884 231.463C0.0947477 231.124 -0.0356079 230.69 0.00838308 230.256C0.052374 229.821 0.267237 229.422 0.605586 229.146C0.943935 228.87 1.37834 228.739 1.81285 228.783C2.24736 228.827 2.64672 229.042 2.92286 229.38C49.9362 286.995 105.443 308.049 143.724 315.547C185.255 323.679 216.071 318.09 216.376 318.016C216.59 317.971 216.812 317.969 217.027 318.01C217.242 318.052 217.446 318.136 217.629 318.257C217.811 318.379 217.968 318.536 218.089 318.719C218.209 318.902 218.292 319.107 218.333 319.322C218.373 319.538 218.371 319.759 218.325 319.973C218.279 320.187 218.19 320.39 218.064 320.57C217.939 320.749 217.779 320.902 217.593 321.019C217.408 321.136 217.201 321.215 216.985 321.251C216.804 321.267 206.12 323.209 188.918 323.209Z" fill="#1D1D1B"/>
    <path d="M311.546 268.748C311.546 268.748 302.665 292.905 286.656 282.74C270.648 272.575 236.614 250.534 219.025 273.588C201.436 296.642 202.671 302.617 183.189 296.535C163.707 290.452 112.406 341.803 160.333 373.162C238.812 424.488 351.851 305.909 351.851 305.909L340.172 287.909L311.546 268.748Z" fill="#7E74C1"/>
    <path d="M204.729 387.277C188.07 387.277 172.967 382.907 159.658 374.199C140.275 361.524 134.341 343.268 143.386 324.099C151.79 306.28 172.062 291.786 183.552 295.366C198.54 300.041 200.268 297.605 209.89 284.049C212.178 280.822 214.762 277.168 218.062 272.847C236.12 249.184 270.302 270.888 286.73 281.324L287.339 281.711C290.903 283.975 294.361 284.567 297.612 283.465C305.752 280.715 310.361 268.443 310.402 268.32L310.945 266.847L341.085 287.036L353.431 306.066L352.757 306.765C352.477 307.07 323.949 336.799 286.179 359.845C263.956 373.409 242.886 382.067 223.626 385.532C217.391 386.672 211.067 387.256 204.729 387.277V387.277ZM179.79 297.3C169.782 297.3 153.28 308.922 145.617 325.153C140.678 335.688 136.036 355.803 161.007 372.133C200.992 398.282 250.417 378.717 284.837 357.762C319.258 336.807 345.745 310.37 350.28 305.761L339.275 288.806L312.114 270.608C310.55 274.18 305.933 283.25 298.394 285.802C294.402 287.152 290.229 286.477 285.998 283.794L285.389 283.407C269.578 273.365 236.688 252.484 220.013 274.353C216.721 278.641 214.161 282.279 211.889 285.481C202.136 299.243 199.543 302.946 182.819 297.736C181.837 297.438 180.816 297.291 179.79 297.3V297.3Z" fill="black"/>
    <path d="M213.906 385.606C263.109 317.901 336.337 301.003 336.337 301.003C340.306 303.838 343.568 307.55 345.868 311.852C327.555 329.432 270.097 380.355 213.906 385.606Z" fill="#534E93"/>
    <path d="M316.336 238.632C329.632 238.632 340.41 227.853 340.41 214.557C340.41 201.261 329.632 190.482 316.336 190.482C303.04 190.482 292.261 201.261 292.261 214.557C292.261 227.853 303.04 238.632 316.336 238.632Z" fill="#7E74C1"/>
    <path d="M302.253 195.026C306.588 191.899 311.84 190.304 317.182 190.491C322.523 190.679 327.651 192.638 331.756 196.061C335.861 199.485 338.71 204.176 339.854 209.397C340.998 214.618 340.372 220.072 338.075 224.898C335.778 229.724 331.94 233.648 327.166 236.052C322.393 238.457 316.955 239.204 311.71 238.176C306.465 237.149 301.711 234.405 298.197 230.378C294.683 226.35 292.609 221.268 292.303 215.932C292.057 211.89 292.84 207.852 294.581 204.195C296.321 200.539 298.961 197.384 302.253 195.026V195.026ZM301.184 193.545C296.121 197.192 292.545 202.544 291.112 208.617C289.678 214.689 290.483 221.076 293.379 226.602C296.275 232.129 301.068 236.426 306.878 238.703C312.687 240.98 319.122 241.085 325.003 238.998C330.883 236.912 335.814 232.774 338.889 227.344C341.963 221.915 342.976 215.559 341.741 209.442C340.506 203.326 337.106 197.861 332.166 194.05C327.225 190.239 321.075 188.338 314.846 188.697C309.922 188.974 305.181 190.656 301.184 193.545Z" fill="black"/>
    <path d="M412.001 245.669C412.001 245.669 419.211 224.714 405.524 215.273C391.836 205.833 389.063 208.911 382.19 203.462C375.318 198.013 358.511 198.244 348.856 208.302C348.856 208.302 328.28 205.833 317.193 216.697C306.106 227.561 305.168 236.385 307.316 248.681C309.465 260.978 308.402 267.612 309.637 276.311C310.871 285.011 318.057 307.283 354.082 305.942C390.108 304.6 412.001 245.669 412.001 245.669Z" fill="#7E74C1"/>
    <path d="M351.012 307.217C315.621 307.217 309.48 283.834 308.435 276.484C307.987 272.956 307.738 269.406 307.687 265.85C307.604 260.167 307.08 254.498 306.122 248.895C303.925 236.442 304.896 227.043 316.329 215.816C326.732 205.594 344.782 206.68 348.428 207.01C358.354 197.133 375.318 196.425 382.997 202.491C385.272 204.285 387.887 205.598 390.684 206.351C394.174 207.495 398.519 208.911 406.264 214.253C420.561 224.129 413.515 245.175 413.203 246.072C409.074 256.544 403.866 266.557 397.663 275.949C384.412 295.777 369.391 306.559 354.239 307.127C353.103 307.193 352.041 307.217 351.012 307.217ZM343.835 209.273C337.251 209.273 325.357 210.376 318.057 217.545C307.357 228.064 306.452 236.475 308.559 248.434C309.536 254.146 310.066 259.925 310.147 265.719C310.199 269.187 310.444 272.649 310.88 276.089C311.876 283.135 317.958 305.999 354.091 304.641C388.725 303.333 410.38 246.41 410.832 245.208C411.038 244.607 417.417 224.936 404.816 216.236C397.408 211.1 393.21 209.742 389.877 208.648C386.799 207.813 383.923 206.359 381.425 204.376C375.21 199.438 359.202 199.289 349.745 209.1L349.325 209.545L348.708 209.479C347.088 209.336 345.461 209.278 343.835 209.306V209.273Z" fill="black"/>
    <path d="M352.494 261.34L352.428 261.389C343.176 266.879 328.929 263.118 328.328 262.953C328.105 262.881 327.92 262.725 327.808 262.519C327.697 262.313 327.668 262.072 327.729 261.846C327.791 261.619 327.937 261.425 328.137 261.304C328.337 261.182 328.577 261.142 328.806 261.192C328.946 261.233 342.913 264.912 351.498 259.817C351.699 259.711 351.933 259.683 352.154 259.74C352.374 259.797 352.565 259.934 352.69 260.125C352.814 260.315 352.863 260.546 352.827 260.77C352.791 260.995 352.672 261.198 352.494 261.34V261.34Z" fill="black"/>
    <path d="M404.543 308.18C404.543 308.18 421.144 310.65 413.506 325.868C405.868 341.086 391.102 336.519 391.102 336.519C391.102 336.519 361.818 368.346 352.83 328.551L404.543 308.18Z" fill="white"/>
    <path d="M369.399 349.827C368.176 349.833 366.959 349.678 365.777 349.366C359.061 347.572 354.296 340.667 351.629 328.848L351.39 327.819L404.396 306.938H404.724C405.045 306.987 412.675 308.172 415.63 313.827C417.416 317.259 417.07 321.489 414.609 326.403C407.613 340.395 394.757 338.584 391.506 337.876C389.144 340.305 379.242 349.827 369.399 349.827ZM354.279 329.333C356.748 339.556 360.864 345.49 366.411 346.98C377.045 349.819 390.066 335.852 390.198 335.712L390.724 335.136L391.473 335.366C392.033 335.539 405.342 339.44 412.404 325.341C414.486 321.177 414.873 317.695 413.441 315.012C411.358 311.02 406.033 309.744 404.675 309.481L354.279 329.333Z" fill="#1D1D1B"/>
    <path d="M348.238 255.867C346.255 257.283 344.09 258.426 341.802 259.266C341.578 259.338 341.334 259.321 341.123 259.218C340.911 259.115 340.747 258.934 340.665 258.713C340.584 258.493 340.59 258.249 340.684 258.033C340.778 257.817 340.951 257.645 341.168 257.554C360.922 250.146 355.852 228.747 355.63 227.8C355.572 227.564 355.61 227.315 355.736 227.108C355.862 226.9 356.065 226.751 356.3 226.693C356.536 226.635 356.786 226.673 356.993 226.799C357.201 226.925 357.349 227.128 357.407 227.364C357.481 227.578 361.844 246.056 348.238 255.867Z" fill="white"/>
    <path d="M341.514 259.735C341.244 259.735 340.979 259.652 340.757 259.498C340.535 259.343 340.366 259.124 340.272 258.871C340.204 258.71 340.169 258.538 340.169 258.365C340.169 258.191 340.204 258.019 340.272 257.858C340.417 257.539 340.683 257.29 341.012 257.167C360.387 249.908 355.44 228.796 355.226 227.899C355.183 227.732 355.173 227.557 355.198 227.386C355.224 227.215 355.284 227.05 355.374 226.903C355.557 226.603 355.851 226.388 356.191 226.303C356.532 226.218 356.892 226.271 357.193 226.45C357.344 226.539 357.476 226.658 357.579 226.8C357.682 226.941 357.756 227.103 357.795 227.273C357.844 227.463 362.321 246.204 348.477 256.204C346.464 257.642 344.265 258.802 341.942 259.653C341.804 259.703 341.66 259.731 341.514 259.735V259.735ZM356.543 227.084H356.42C356.292 227.118 356.183 227.201 356.115 227.314C356.08 227.369 356.056 227.43 356.046 227.494C356.036 227.557 356.04 227.623 356.058 227.685C356.28 228.615 361.391 250.41 341.333 257.924C341.21 257.97 341.109 258.061 341.053 258.179C341.004 258.304 341.004 258.442 341.053 258.566C341.101 258.691 341.196 258.792 341.318 258.847C341.44 258.903 341.577 258.908 341.703 258.863C343.955 258.032 346.086 256.905 348.041 255.513V255.513C361.424 245.85 357.095 227.627 357.045 227.446C357.03 227.382 357.001 227.322 356.962 227.27C356.922 227.217 356.872 227.174 356.815 227.142C356.732 227.095 356.637 227.075 356.543 227.084V227.084Z" fill="white"/>
    <path d="M299.521 218.483C299.396 218.571 299.253 218.628 299.101 218.648C298.862 218.678 298.621 218.613 298.43 218.467C298.239 218.32 298.113 218.104 298.08 217.866C297.257 211.685 298.443 206.697 301.587 203.051C306.674 197.133 315.003 196.902 315.357 196.902C315.476 196.899 315.596 196.92 315.707 196.963C315.819 197.006 315.921 197.07 316.007 197.153C316.094 197.236 316.163 197.335 316.211 197.444C316.259 197.554 316.285 197.672 316.287 197.791C316.289 197.911 316.268 198.031 316.224 198.142C316.18 198.254 316.114 198.356 316.031 198.442C315.948 198.529 315.849 198.598 315.739 198.646C315.629 198.694 315.51 198.719 315.39 198.721C315.316 198.721 307.505 198.952 302.962 204.252C300.18 207.495 299.142 211.997 299.891 217.635C299.91 217.797 299.886 217.96 299.821 218.109C299.756 218.258 299.652 218.387 299.521 218.483V218.483Z" fill="white"/>
    <path d="M298.978 219.067C298.681 219.075 298.39 218.979 298.155 218.796C297.876 218.581 297.692 218.265 297.645 217.915C296.822 211.619 298.023 206.524 301.25 202.771C306.443 196.73 314.962 196.483 315.324 196.483C315.67 196.486 316.004 196.615 316.263 196.845C316.451 197.026 316.582 197.26 316.638 197.515C316.694 197.771 316.674 198.037 316.579 198.281C316.484 198.525 316.318 198.735 316.104 198.886C315.889 199.036 315.635 199.119 315.374 199.125C315.3 199.125 307.661 199.372 303.25 204.516C300.542 207.668 299.546 212.055 300.27 217.57C300.302 217.807 300.27 218.049 300.176 218.269C300.082 218.489 299.93 218.68 299.736 218.821C299.556 218.944 299.35 219.026 299.134 219.059L298.978 219.067ZM315.374 197.306C315.028 197.306 306.871 197.544 301.908 203.314C298.846 206.878 297.694 211.751 298.492 217.808C298.501 217.874 298.522 217.937 298.556 217.994C298.59 218.05 298.636 218.099 298.69 218.137C298.741 218.179 298.801 218.21 298.864 218.229C298.928 218.247 298.995 218.252 299.06 218.244C299.141 218.229 299.217 218.195 299.282 218.146C299.357 218.094 299.416 218.023 299.453 217.941C299.489 217.858 299.501 217.766 299.488 217.677C298.731 211.915 299.793 207.314 302.657 203.973C307.332 198.532 315.308 198.31 315.39 198.302C315.483 198.296 315.572 198.264 315.648 198.21C315.723 198.156 315.782 198.082 315.817 197.996C315.853 197.91 315.862 197.816 315.846 197.724C315.831 197.633 315.79 197.548 315.727 197.479C315.684 197.427 315.63 197.385 315.569 197.355C315.508 197.325 315.442 197.308 315.374 197.306V197.306Z" fill="white"/>
    <path d="M392.272 300.443L403.276 308.443C403.276 308.443 397.366 345.901 356.748 325.802C356.748 325.802 360.715 312.814 351.884 286.295C351.884 286.295 340.435 290.608 336.245 280.624C332.056 270.64 338.237 264.434 344.065 264.097C344.065 264.097 368.222 264.92 362.666 219.191C362.666 219.191 385.078 214.977 400.609 230.886C416.14 246.796 426.256 270.336 416.173 285.529C406.091 300.723 392.272 300.443 392.272 300.443Z" fill="#FFCDB2"/>
    <path d="M369.473 218.689C377.325 218.689 390.42 220.491 400.577 230.895C416.1 246.813 426.224 270.344 416.141 285.538C406.388 300.213 393.194 300.46 392.272 300.46L403.277 308.46C403.277 308.46 399.606 331.745 378.14 331.745C372.379 331.745 365.342 330.099 356.741 325.819C356.741 325.819 360.708 312.831 351.876 286.312C350.101 286.919 348.238 287.233 346.362 287.242C342.822 287.242 338.469 285.999 336.205 280.657C331.975 270.673 338.197 264.467 344.024 264.13H344.098C345.621 264.13 367.968 263.389 362.626 219.224C364.887 218.861 367.175 218.69 369.465 218.713L369.473 218.689ZM369.465 216.244C367.023 216.218 364.583 216.403 362.173 216.796L359.901 217.224L360.173 219.52C362.848 241.488 358.387 251.768 354.173 256.517C349.745 261.521 344.666 261.661 344.098 261.661H343.876C341.933 261.795 340.049 262.386 338.378 263.388C336.707 264.389 335.297 265.772 334.262 267.422C331.793 271.323 331.711 276.361 333.934 281.595C336.156 286.83 340.559 289.703 346.362 289.703C347.667 289.695 348.968 289.56 350.247 289.299C357.737 313.077 354.412 324.995 354.362 325.111L353.778 327.102L355.63 328.033C363.926 332.148 371.49 334.214 378.115 334.214C387.786 334.214 395.647 329.786 400.832 321.407C403.196 317.547 404.843 313.292 405.696 308.847L405.927 307.349L404.709 306.46L398.494 301.95C403.877 300.435 411.729 296.6 418.166 286.896C423.293 279.184 424.018 269.093 420.281 257.718C417.047 247.842 410.668 237.726 402.314 229.174C391.318 217.907 377.004 216.219 369.448 216.219L369.465 216.244Z" fill="#1D1D1B"/>
    <path d="M393.622 301.793C393.54 301.849 393.452 301.893 393.359 301.925C383.564 304.995 371.836 300.822 371.342 300.641C371.114 300.558 370.928 300.388 370.825 300.168C370.722 299.948 370.711 299.696 370.794 299.468C370.877 299.24 371.047 299.054 371.267 298.952C371.487 298.849 371.739 298.838 371.967 298.921C372.082 298.97 383.614 303.036 392.815 300.18C393.034 300.071 393.286 300.053 393.518 300.13C393.749 300.207 393.941 300.373 394.05 300.592C394.159 300.81 394.177 301.063 394.1 301.294C394.023 301.526 393.857 301.717 393.638 301.826L393.622 301.793Z" fill="black"/>
    <path d="M349.209 282.114C349.075 282.212 348.917 282.271 348.752 282.285C348.586 282.3 348.42 282.269 348.271 282.196C344.114 280.163 341.859 277.711 341.563 274.904C341.143 270.871 345.012 267.801 345.176 267.678C345.27 267.601 345.378 267.545 345.494 267.511C345.61 267.478 345.732 267.468 345.852 267.482C345.971 267.497 346.087 267.536 346.192 267.596C346.296 267.657 346.387 267.737 346.46 267.834C346.533 267.928 346.588 268.036 346.619 268.152C346.651 268.267 346.659 268.388 346.644 268.506C346.629 268.625 346.59 268.739 346.53 268.843C346.47 268.946 346.39 269.037 346.295 269.11C346.246 269.159 343.061 271.711 343.382 274.723C343.604 276.855 345.521 278.838 349.077 280.559C349.294 280.665 349.46 280.853 349.538 281.081C349.617 281.309 349.603 281.559 349.497 281.777C349.431 281.912 349.332 282.028 349.209 282.114V282.114Z" fill="black"/>
    <path d="M380.914 246.056C371.433 254.056 354.51 257.077 354.074 262.213C353.638 267.349 358.263 271.472 364.774 269.62C371.284 267.768 376.906 264.542 388.182 257.274C399.458 250.007 409.96 242.138 405.252 236.566C400.544 230.994 394.849 234.294 380.914 246.056Z" fill="#FFB49F"/>
    <path d="M389.598 232.492C389.49 232.568 389.368 232.621 389.239 232.646C389.11 232.672 388.977 232.67 388.848 232.64V232.64C388.791 232.64 383.532 231.389 380.124 234.286C379.939 234.442 379.699 234.518 379.457 234.497C379.216 234.477 378.992 234.361 378.836 234.175C378.68 233.99 378.604 233.75 378.624 233.508C378.645 233.266 378.761 233.043 378.947 232.887C383.062 229.422 389.022 230.821 389.277 230.879C389.449 230.92 389.605 231.01 389.727 231.137C389.849 231.265 389.932 231.425 389.966 231.599C390 231.772 389.983 231.952 389.917 232.116C389.852 232.28 389.741 232.422 389.598 232.525V232.492Z" fill="black"/>
    <path d="M394.956 263.323C394.785 263.445 394.578 263.505 394.368 263.493C394.158 263.481 393.96 263.398 393.804 263.258L378.989 249.726C378.899 249.646 378.826 249.549 378.775 249.44C378.723 249.332 378.693 249.214 378.687 249.094C378.681 248.974 378.699 248.854 378.739 248.741C378.78 248.628 378.842 248.523 378.923 248.434C379.089 248.259 379.316 248.155 379.557 248.144C379.798 248.133 380.034 248.217 380.214 248.377L395.029 261.908C395.207 262.072 395.313 262.3 395.324 262.542C395.334 262.784 395.249 263.02 395.087 263.2L394.956 263.323Z" fill="black"/>
    <path d="M347.563 292.567C349.74 292.567 351.506 290.802 351.506 288.624C351.506 286.447 349.74 284.682 347.563 284.682C345.386 284.682 343.621 286.447 343.621 288.624C343.621 290.802 345.386 292.567 347.563 292.567Z" fill="#00D7AD"/>
    <path d="M345.259 285.431C345.971 284.923 346.832 284.666 347.706 284.701C348.58 284.736 349.418 285.06 350.088 285.623C350.757 286.187 351.22 286.957 351.403 287.812C351.587 288.668 351.481 289.56 351.102 290.348C350.723 291.137 350.092 291.777 349.31 292.168C348.527 292.558 347.637 292.677 346.778 292.506C345.92 292.335 345.144 291.884 344.571 291.223C343.997 290.562 343.66 289.729 343.612 288.855C343.577 288.192 343.709 287.531 343.997 286.932C344.284 286.334 344.719 285.818 345.259 285.431V285.431ZM344.189 283.95C343.064 284.76 342.269 285.95 341.95 287.299C341.631 288.649 341.81 290.068 342.453 291.297C343.097 292.525 344.161 293.48 345.451 293.987C346.742 294.494 348.173 294.518 349.48 294.055C350.787 293.592 351.884 292.673 352.568 291.467C353.252 290.261 353.478 288.849 353.205 287.489C352.932 286.13 352.179 284.914 351.082 284.066C349.985 283.218 348.619 282.794 347.234 282.871C346.137 282.933 345.08 283.307 344.189 283.95V283.95Z" fill="black"/>
    <path d="M367.728 241.619C367.628 241.692 367.514 241.743 367.394 241.77C367.274 241.797 367.15 241.799 367.028 241.776V241.776C366.205 241.619 363.604 241.43 362.814 242.599C362.669 242.778 362.462 242.895 362.234 242.928C362.006 242.96 361.774 242.906 361.584 242.775C361.395 242.643 361.263 242.446 361.213 242.221C361.163 241.996 361.2 241.761 361.316 241.562C362.962 239.257 366.914 239.916 367.358 240.015C367.596 240.059 367.806 240.195 367.943 240.394C368.08 240.593 368.133 240.838 368.09 241.076C368.038 241.295 367.909 241.487 367.728 241.619V241.619Z" fill="black"/>
    <path d="M133.987 361.63C95.5403 361.621 57.9487 350.281 25.9101 329.029C25.5456 328.787 25.2916 328.411 25.2044 327.983C25.1172 327.555 25.2044 327.109 25.4456 326.745C25.6868 326.38 26.0629 326.126 26.4913 326.039C26.9196 325.952 27.3645 326.038 27.7291 326.28C59.2217 347.188 96.1769 358.352 133.978 358.379H134.151C162.769 358.379 182.127 351.951 182.325 351.885C182.53 351.816 182.747 351.788 182.962 351.802C183.178 351.817 183.388 351.874 183.582 351.97C183.776 352.065 183.949 352.199 184.091 352.361C184.233 352.524 184.342 352.713 184.412 352.918C184.481 353.123 184.509 353.339 184.494 353.555C184.48 353.771 184.423 353.982 184.327 354.175C184.231 354.369 184.098 354.542 183.936 354.684C183.773 354.827 183.584 354.935 183.379 355.005C182.556 355.276 163.411 361.589 134.283 361.671L133.987 361.63Z" fill="#1D1D1B"/>
    <path d="M367.021 445.837C369.612 445.837 371.712 443.737 371.712 441.146C371.712 438.555 369.612 436.455 367.021 436.455C364.43 436.455 362.33 438.555 362.33 441.146C362.33 443.737 364.43 445.837 367.021 445.837Z" fill="#4AEBD7"/>
    <path d="M456.134 370.067C458.725 370.067 460.825 367.966 460.825 365.375C460.825 362.784 458.725 360.684 456.134 360.684C453.542 360.684 451.442 362.784 451.442 365.375C451.442 367.966 453.542 370.067 456.134 370.067Z" fill="#4AEBD7"/>
    <path d="M487.261 451.657C489.852 451.657 491.953 449.556 491.953 446.965C491.953 444.374 489.852 442.274 487.261 442.274C484.67 442.274 482.57 444.374 482.57 446.965C482.57 449.556 484.67 451.657 487.261 451.657Z" fill="#4AEBD7"/>
    <path d="M437.228 434.109C439.819 434.109 441.92 432.009 441.92 429.417C441.92 426.826 439.819 424.726 437.228 424.726C434.637 424.726 432.537 426.826 432.537 429.417C432.537 432.009 434.637 434.109 437.228 434.109Z" fill="#4AEBD7"/>
    <path d="M331.769 376.026C334.36 376.026 336.461 373.925 336.461 371.334C336.461 368.743 334.36 366.643 331.769 366.643C329.178 366.643 327.078 368.743 327.078 371.334C327.078 373.925 329.178 376.026 331.769 376.026Z" fill="#4AEBD7"/>
    <path d="M383.524 394.429C386.115 394.429 388.215 392.329 388.215 389.738C388.215 387.147 386.115 385.046 383.524 385.046C380.933 385.046 378.832 387.147 378.832 389.738C378.832 392.329 380.933 394.429 383.524 394.429Z" fill="#4AEBD7"/>
    <path d="M456.743 343.449C459.334 343.449 461.435 341.348 461.435 338.757C461.435 336.166 459.334 334.066 456.743 334.066C454.152 334.066 452.051 336.166 452.051 338.757C452.051 341.348 454.152 343.449 456.743 343.449Z" fill="#4AEBD7"/>
    <path d="M556.325 386.651C558.916 386.651 561.016 384.551 561.016 381.96C561.016 379.369 558.916 377.268 556.325 377.268C553.734 377.268 551.633 379.369 551.633 381.96C551.633 384.551 553.734 386.651 556.325 386.651Z" fill="#4AEBD7"/>
    <path d="M605.28 350.807C607.872 350.807 609.972 348.707 609.972 346.115C609.972 343.524 607.872 341.424 605.28 341.424C602.689 341.424 600.589 343.524 600.589 346.115C600.589 348.707 602.689 350.807 605.28 350.807Z" fill="#4AEBD7"/>
    <path d="M641.018 370.478C643.609 370.478 645.709 368.378 645.709 365.787C645.709 363.196 643.609 361.095 641.018 361.095C638.427 361.095 636.326 363.196 636.326 365.787C636.326 368.378 638.427 370.478 641.018 370.478Z" fill="#4AEBD7"/>
    <path d="M324.213 377.992C326.804 377.992 328.904 375.892 328.904 373.301C328.904 370.71 326.804 368.61 324.213 368.61C321.622 368.61 319.522 370.71 319.522 373.301C319.522 375.892 321.622 377.992 324.213 377.992Z" fill="#4AEBD7"/>
    <path d="M666.672 326.921L626.936 303.826L618.005 314.716C618.005 314.716 629.191 341.473 662.097 344.346L666.672 326.921Z" fill="#05AF8F"/>
    <path d="M627.618 301.572C627.618 301.572 594.144 234.278 637.857 240.574L657.191 208.475C657.191 208.475 678.499 206.294 671.849 236.047C671.849 236.047 684.335 242.311 686.664 254.978C686.664 254.978 701.932 258.27 696.73 279.793C691.101 303.078 666.886 325.185 666.886 325.185L627.618 301.572Z" fill="#FFCDB2"/>
    <path d="M667.075 326.716L626.671 302.444L626.514 302.114C625.691 300.468 606.317 261.068 617.724 245.323C621.469 240.146 628.029 238.113 637.214 239.274L656.449 207.314L657.059 207.248C657.38 207.248 665.026 206.508 670.113 212.236C674.401 217.067 675.462 224.862 673.248 235.413C676.137 237.06 685.372 243.167 687.759 254.015C691.288 255.208 694.298 257.583 696.278 260.739C699.331 265.612 699.899 272.122 697.973 280.098C692.318 303.481 668.754 325.201 667.758 326.115L667.075 326.716ZM628.572 300.699L666.762 323.637C670.672 319.893 690.631 299.991 695.57 279.497C697.331 272.213 696.878 266.328 694.211 262.064C692.433 259.21 689.664 257.114 686.434 256.179L685.611 255.998L685.454 255.175C683.224 243.233 671.38 237.167 671.264 237.068L670.4 236.64L670.606 235.693C672.886 225.512 672.088 218.154 668.244 213.8C664.762 209.857 659.586 209.553 657.874 209.594L638.458 241.85L637.635 241.735C628.992 240.492 622.951 242.146 619.675 246.673C609.691 260.607 626.737 296.896 628.572 300.699V300.699Z" fill="#1D1D1B"/>
    <path d="M696.129 284.246C692.096 294.271 677.001 300.123 673.421 290.196C670.45 281.966 673.314 277.291 673.314 277.291C673.314 277.291 659.404 288.978 653.363 273.719C647.322 258.459 670.705 236.549 670.705 236.549" fill="#FFCDB2"/>
    <path d="M680.796 296.559H680.583C678.74 296.601 676.932 296.045 675.432 294.973C673.932 293.902 672.819 292.373 672.261 290.616C670.975 287.344 670.561 283.793 671.06 280.312C668.385 281.843 664.31 283.497 660.36 282.501C656.804 281.604 654.072 278.797 652.245 274.172C645.965 258.319 668.911 236.566 669.891 235.652C670.009 235.541 670.147 235.453 670.299 235.396C670.451 235.338 670.613 235.311 670.776 235.316C670.938 235.322 671.098 235.359 671.245 235.427C671.393 235.494 671.526 235.591 671.636 235.71C671.858 235.95 671.976 236.268 671.965 236.594C671.955 236.921 671.815 237.23 671.578 237.455C671.348 237.661 648.87 258.97 654.541 273.266C656.056 277.11 658.22 279.406 660.953 280.106C666.344 281.48 672.475 276.402 672.541 276.344C672.767 276.162 673.051 276.065 673.342 276.069C673.633 276.074 673.913 276.181 674.133 276.371C674.353 276.561 674.5 276.822 674.548 277.109C674.595 277.396 674.54 277.69 674.393 277.941C674.294 278.106 671.924 282.271 674.607 289.777C675.006 291.058 675.813 292.173 676.905 292.952C677.998 293.731 679.316 294.131 680.657 294.09H680.813C685.694 294.09 692.508 289.974 695.002 283.785C695.125 283.48 695.363 283.237 695.665 283.108C695.966 282.979 696.307 282.976 696.611 283.098C696.916 283.22 697.159 283.458 697.288 283.76C697.417 284.062 697.421 284.402 697.299 284.707C694.632 291.291 687.274 296.559 680.796 296.559Z" fill="#1D1D1B"/>
    <path d="M671.874 279.587C671.634 279.587 671.399 279.516 671.199 279.381C670.926 279.203 670.735 278.923 670.667 278.604C670.599 278.285 670.66 277.952 670.838 277.678L685.858 254.475C685.947 254.339 686.06 254.222 686.194 254.13C686.327 254.037 686.478 253.973 686.636 253.939C686.795 253.905 686.958 253.902 687.118 253.931C687.277 253.961 687.43 254.021 687.566 254.109C687.703 254.197 687.82 254.311 687.912 254.445C688.004 254.578 688.069 254.729 688.103 254.887C688.137 255.046 688.139 255.21 688.11 255.369C688.081 255.529 688.02 255.681 687.932 255.817L672.911 279.019C672.799 279.192 672.645 279.334 672.464 279.433C672.283 279.532 672.081 279.585 671.874 279.587V279.587Z" fill="#1D1D1B"/>
    <path d="M637.899 240.566C637.899 240.566 661.2 240.022 663.134 253.084C665.068 266.146 628.755 267.291 628.755 267.291" fill="#FFCDB2"/>
    <path d="M628.755 268.525C628.427 268.525 628.113 268.395 627.882 268.164C627.65 267.932 627.52 267.618 627.52 267.291C627.52 266.963 627.65 266.649 627.882 266.418C628.113 266.186 628.427 266.056 628.755 266.056C629.01 266.056 654.27 265.159 660.681 257.505C661.196 256.938 661.577 256.263 661.798 255.529C662.018 254.796 662.073 254.023 661.957 253.266C660.204 241.438 638.194 241.743 637.972 241.8C637.645 241.803 637.33 241.678 637.094 241.452C636.857 241.226 636.718 240.917 636.706 240.591C636.701 240.264 636.825 239.948 637.052 239.713C637.278 239.477 637.588 239.34 637.915 239.331C638.903 239.331 662.327 238.928 664.401 252.904C664.568 254.006 664.492 255.132 664.176 256.201C663.86 257.271 663.313 258.258 662.574 259.093C655.479 267.587 629.915 268.492 628.829 268.525H628.755Z" fill="#1D1D1B"/>
    <path d="M539.748 433.286C539.48 433.287 539.219 433.199 539.005 433.037C538.791 432.875 538.636 432.647 538.563 432.389C532.613 411.541 505.641 371.202 505.361 370.799C505.192 370.527 505.136 370.2 505.203 369.888C505.27 369.575 505.456 369.3 505.722 369.122C505.988 368.944 506.312 368.876 506.627 368.932C506.942 368.989 507.223 369.165 507.41 369.424C508.529 371.071 534.876 410.487 540.934 431.714C541.026 432.026 540.991 432.362 540.837 432.649C540.683 432.935 540.422 433.15 540.111 433.245C539.992 433.272 539.87 433.286 539.748 433.286V433.286Z" fill="#1D1E1B"/>
    <path d="M286.747 394.059C286.747 394.059 285.792 435.92 290.517 463.764Z" fill="#00D7AD"/>
    <path d="M290.517 464.999C290.225 464.997 289.944 464.893 289.721 464.705C289.498 464.517 289.348 464.257 289.298 463.97C284.607 436.331 285.504 394.446 285.512 394.009C285.519 393.686 285.652 393.379 285.883 393.152C286.114 392.926 286.424 392.799 286.747 392.8V392.8C286.909 392.803 287.069 392.838 287.217 392.903C287.366 392.968 287.5 393.062 287.613 393.179C287.725 393.295 287.813 393.433 287.872 393.584C287.931 393.735 287.96 393.897 287.957 394.059C287.957 394.479 287.06 436.134 291.71 463.533C291.737 463.693 291.733 463.857 291.697 464.016C291.66 464.174 291.593 464.323 291.499 464.455C291.405 464.588 291.286 464.7 291.148 464.786C291.011 464.872 290.857 464.93 290.697 464.957L290.517 464.999Z" fill="#1D1D1B"/>
    <path d="M550.712 349.325C550.185 349.327 549.672 349.16 549.247 348.848C519.147 326.626 490.942 320.938 472.579 320.041C452.669 319.086 439.656 323.457 439.558 323.498C439.251 323.606 438.926 323.653 438.602 323.635C438.277 323.618 437.959 323.537 437.666 323.396C437.074 323.113 436.62 322.606 436.401 321.988C436.183 321.369 436.219 320.688 436.503 320.096C436.786 319.505 437.293 319.049 437.912 318.831C438.471 318.634 451.722 314.148 472.529 315.094C491.624 315.967 520.95 321.835 552.144 344.848C552.561 345.157 552.87 345.59 553.027 346.084C553.184 346.579 553.181 347.11 553.019 347.603C552.857 348.096 552.544 348.526 552.123 348.83C551.703 349.135 551.198 349.3 550.679 349.301L550.712 349.325Z" fill="white"/>
    <path d="M386.593 285.472C383.455 285.403 380.384 284.554 377.655 283.003C377.371 282.838 377.164 282.567 377.08 282.25C376.996 281.933 377.042 281.595 377.207 281.311C377.371 281.027 377.642 280.821 377.959 280.737C378.276 280.653 378.614 280.698 378.898 280.863C378.988 280.92 387.951 286.023 392.989 280.295C393.097 280.173 393.228 280.073 393.374 280.001C393.521 279.93 393.68 279.888 393.843 279.878C394.006 279.868 394.169 279.89 394.323 279.944C394.477 279.997 394.62 280.08 394.742 280.188C394.864 280.296 394.964 280.427 395.035 280.574C395.106 280.72 395.148 280.879 395.158 281.042C395.168 281.205 395.146 281.368 395.093 281.522C395.04 281.677 394.957 281.819 394.849 281.941C393.817 283.101 392.543 284.019 391.116 284.629C389.689 285.24 388.144 285.527 386.593 285.472V285.472Z" fill="black"/>
    <path d="M370.873 260.937C372.009 260.937 372.93 260.015 372.93 258.879C372.93 257.743 372.009 256.821 370.873 256.821C369.736 256.821 368.815 257.743 368.815 258.879C368.815 260.015 369.736 260.937 370.873 260.937Z" fill="black"/>
    <path d="M398.856 243.652C399.993 243.652 400.914 242.731 400.914 241.595C400.914 240.458 399.993 239.537 398.856 239.537C397.72 239.537 396.799 240.458 396.799 241.595C396.799 242.731 397.72 243.652 398.856 243.652Z" fill="black"/>
    <path d="M286.508 193.034C286.297 193.034 286.089 192.981 285.905 192.878C285.72 192.775 285.564 192.626 285.454 192.446C285.343 192.266 285.281 192.06 285.272 191.849C285.263 191.638 285.31 191.428 285.405 191.24C285.644 190.771 291.397 179.676 302.879 176.095C309.768 173.947 317.192 174.992 324.953 179.19C325.228 179.352 325.429 179.614 325.515 179.922C325.601 180.229 325.564 180.557 325.413 180.838C325.262 181.119 325.009 181.331 324.705 181.429C324.401 181.526 324.071 181.503 323.785 181.363C316.624 177.495 309.793 176.507 303.612 178.458C293.118 181.75 287.66 192.252 287.611 192.359C287.507 192.562 287.349 192.732 287.154 192.851C286.96 192.97 286.736 193.034 286.508 193.034V193.034Z" fill="#1D1F1C"/>
    <path d="M226.836 554.21C226.836 554.21 223.692 536.399 183.88 528.012C144.069 519.625 114.743 562.581 114.743 562.581H226.844L226.836 554.21Z" fill="white"/>
    <path d="M228.071 563.824H112.398L113.715 561.889C119.359 554.102 126.057 547.135 133.617 541.189C150.02 528.275 167.494 523.304 184.136 526.81C224.302 535.263 227.915 553.231 228.055 553.971V554.185L228.071 563.824ZM117.18 561.354H225.602V554.342C225.273 553.008 220.524 536.992 183.626 529.222C149.88 522.127 123.476 553.165 117.18 561.354Z" fill="#1D1E1B"/>
    <path d="M167.115 511.254C158.736 507.065 138.835 511.254 134.637 519.633C130.439 528.012 137.781 534.3 145.114 536.399C152.448 538.497 162.637 528.111 162.637 528.111L167.115 511.254Z" fill="#FFCDB2"/>
    <path d="M147.173 537.905C146.363 537.91 145.557 537.802 144.777 537.584C140.489 536.358 135.156 533.354 133.066 528.604C132.42 527.085 132.127 525.439 132.208 523.789C132.289 522.14 132.742 520.531 133.534 519.082C135.617 514.966 141.403 511.353 149.025 509.526C156.276 507.789 163.428 508.028 167.675 510.151L168.572 510.596L163.749 528.744L163.519 528.975C163.124 529.378 154.663 537.905 147.173 537.905ZM158.399 510.843C155.434 510.863 152.482 511.228 149.601 511.929C142.786 513.575 137.477 516.728 135.749 520.16C135.118 521.281 134.752 522.531 134.68 523.815C134.607 525.099 134.829 526.383 135.329 527.567C137.074 531.535 141.707 534.094 145.461 535.173C150.753 536.687 158.63 530.3 161.535 527.436L165.651 511.913C163.315 511.135 160.86 510.772 158.399 510.843V510.843Z" fill="#1D1D1B"/>
    <path d="M195.404 526.966C195.404 526.966 191.215 509.155 176.548 507.065C161.881 504.974 149.313 512.3 150.358 526.966C151.404 541.633 169.215 543.732 178.647 540.588C188.079 537.444 195.404 526.966 195.404 526.966Z" fill="#FFCDB2"/>
    <path d="M170.244 543.074C165.346 543.074 160.136 541.955 156.128 539.28C154.078 537.94 152.374 536.135 151.156 534.01C149.939 531.886 149.243 529.503 149.124 527.057C148.671 520.687 150.638 515.254 154.819 511.361C159.939 506.596 167.923 504.588 176.721 505.839C192.047 508.028 196.433 525.921 196.606 526.687L196.738 527.222L196.417 527.675C196.112 528.119 188.738 538.522 179.034 541.757C176.191 542.655 173.225 543.099 170.244 543.074ZM171.659 507.937C165.527 507.937 160.136 509.765 156.498 513.172C152.86 516.58 151.19 521.279 151.56 526.884C151.647 528.955 152.23 530.975 153.26 532.774C154.29 534.572 155.737 536.098 157.478 537.222C163.445 541.214 172.441 541.337 178.228 539.42C186.055 536.811 192.516 528.72 194.039 526.72C193.215 523.806 188.606 510.036 176.351 508.283C174.797 508.058 173.229 507.942 171.659 507.937V507.937Z" fill="#1D1D1B"/>
    <path d="M227.881 540.589C236.77 545.033 238.359 554.21 237.314 562.589C236.269 570.968 225.79 578.301 216.358 574.112C206.926 569.922 211.123 559.445 216.358 554.21C221.593 548.976 212.169 540.588 206.926 547.922C201.683 555.255 187.025 554.21 178.646 547.922C170.267 541.634 176.547 525.922 188.07 521.732C199.593 517.543 212.169 515.444 217.404 526.967C222.638 538.49 223.692 538.49 227.881 540.589Z" fill="#FFCDB2"/>
    <path d="M222.071 576.556C219.93 576.558 217.813 576.109 215.857 575.24C212.416 573.709 210.284 571.215 209.692 568.005C208.729 562.836 211.906 556.91 215.453 553.338C215.966 552.882 216.334 552.286 216.509 551.622C216.685 550.959 216.661 550.259 216.441 549.609C216.139 548.762 215.617 548.01 214.928 547.432C214.24 546.853 213.41 546.468 212.523 546.317C211.297 546.136 209.511 546.383 207.906 548.63C205.873 551.47 202.515 553.321 198.186 553.988C191.016 554.911 183.761 553.095 177.872 548.902C174.465 546.342 172.984 542.268 173.7 537.379C174.37 533.608 176.004 530.074 178.443 527.121C180.881 524.167 184.041 521.894 187.617 520.522C198.004 516.744 212.515 513.238 218.499 526.407C223.264 536.901 224.26 537.412 227.733 539.107L228.4 539.436C236.302 543.379 239.923 551.642 238.507 562.696C237.931 567.28 234.737 571.75 230.177 574.309C227.715 575.746 224.922 576.52 222.071 576.556V576.556ZM211.922 543.807C212.259 543.806 212.594 543.833 212.926 543.889C214.262 544.105 215.515 544.678 216.553 545.547C217.59 546.417 218.373 547.55 218.819 548.827C219.178 549.912 219.22 551.076 218.938 552.183C218.657 553.29 218.065 554.294 217.231 555.075C214.211 558.095 211.322 563.305 212.12 567.552C212.564 569.947 214.161 571.775 216.861 572.976C218.8 573.813 220.911 574.18 223.02 574.045C225.128 573.911 227.175 573.279 228.993 572.202C232.894 570.005 235.577 566.26 236.088 562.424C236.968 555.404 236.161 546.095 227.33 541.683L226.679 541.362C222.564 539.346 221.198 538.284 216.284 527.469C212.375 518.868 203.543 517.411 188.498 522.885C182.3 525.131 177.123 531.403 176.152 537.79C175.568 541.692 176.712 544.943 179.362 546.926C184.71 550.739 191.301 552.391 197.815 551.552C200.367 551.157 203.84 550.079 205.897 547.198C206.55 546.185 207.44 545.347 208.49 544.756C209.54 544.165 210.718 543.839 211.922 543.807V543.807Z" fill="#1D1D1B"/>
    <path d="M460.216 509.617C462.807 509.617 464.908 507.516 464.908 504.925C464.908 502.334 462.807 500.234 460.216 500.234C457.625 500.234 455.524 502.334 455.524 504.925C455.524 507.516 457.625 509.617 460.216 509.617Z" fill="#4AEBD7"/>
    <path d="M339.81 505.008C342.401 505.008 344.502 502.907 344.502 500.316C344.502 497.725 342.401 495.625 339.81 495.625C337.219 495.625 335.119 497.725 335.119 500.316C335.119 502.907 337.219 505.008 339.81 505.008Z" fill="#4AEBD7"/>
    <path d="M403.63 499.172C406.221 499.172 408.322 497.072 408.322 494.481C408.322 491.89 406.221 489.789 403.63 489.789C401.039 489.789 398.938 491.89 398.938 494.481C398.938 497.072 401.039 499.172 403.63 499.172Z" fill="#4AEBD7"/>
    <path d="M300.032 559.758H551.346C561.578 559.758 569.873 551.463 569.873 541.231V389.705C569.873 379.473 561.578 371.178 551.346 371.178H300.032C289.8 371.178 281.504 379.473 281.504 389.705V541.231C281.504 551.463 289.8 559.758 300.032 559.758Z" fill="#7E74C1"/>
    <path d="M551.345 561.001H300.031C294.792 561.001 289.768 558.92 286.063 555.215C282.359 551.511 280.278 546.486 280.278 541.247V389.713C280.278 384.474 282.359 379.45 286.063 375.745C289.768 372.041 294.792 369.96 300.031 369.96H551.345C556.584 369.96 561.608 372.041 565.313 375.745C569.017 379.45 571.099 384.474 571.099 389.713V541.231C571.101 543.826 570.592 546.397 569.6 548.795C568.609 551.194 567.154 553.373 565.319 555.209C563.485 557.045 561.306 558.502 558.909 559.496C556.511 560.489 553.94 561.001 551.345 561.001V561.001ZM300.031 372.421C295.447 372.421 291.051 374.242 287.81 377.483C284.569 380.725 282.747 385.121 282.747 389.705V541.223C282.747 545.807 284.569 550.203 287.81 553.444C291.051 556.686 295.447 558.507 300.031 558.507H551.345C555.929 558.507 560.326 556.686 563.567 553.444C566.809 550.203 568.629 545.807 568.629 541.223V389.713C568.629 385.129 566.809 380.733 563.567 377.491C560.326 374.25 555.929 372.429 551.345 372.429L300.031 372.421Z" fill="#1D1E1B"/>
    <path d="M580.441 560.112H280.558C276.192 560.112 272.006 558.377 268.918 555.29C265.831 552.203 264.097 548.016 264.097 543.651V543.651H596.877C596.877 548.016 595.143 552.203 592.056 555.29C588.969 558.377 584.782 560.112 580.416 560.112H580.441Z" fill="white"/>
    <path d="M580.441 561.355H280.558C275.872 561.35 271.381 559.487 268.068 556.174C264.755 552.861 262.891 548.369 262.887 543.683V542.424H598.104V543.659C598.106 548.347 596.247 552.844 592.935 556.162C589.623 559.48 585.129 561.348 580.441 561.355V561.355ZM265.406 544.893C265.716 548.701 267.445 552.253 270.252 554.845C273.059 557.437 276.737 558.879 280.558 558.885H580.441C584.261 558.879 587.938 557.437 590.744 554.845C593.549 552.253 595.277 548.7 595.585 544.893H265.406Z" fill="#1D1D1B"/>
    <path d="M291.859 527.198C291.204 527.198 290.576 526.937 290.113 526.474C289.65 526.011 289.39 525.383 289.39 524.728V401.269C289.39 400.614 289.65 399.986 290.113 399.523C290.576 399.06 291.204 398.8 291.859 398.8C292.514 398.8 293.142 399.06 293.605 399.523C294.068 399.986 294.328 400.614 294.328 401.269V524.728C294.328 525.383 294.068 526.011 293.605 526.474C293.142 526.937 292.514 527.198 291.859 527.198Z" fill="white"/>
    <path d="M427.656 452.299H412.034C407.598 452.299 404.001 455.896 404.001 460.332V475.954C404.001 480.39 407.598 483.987 412.034 483.987H427.656C432.093 483.987 435.689 480.39 435.689 475.954V460.332C435.689 455.896 432.093 452.299 427.656 452.299Z" fill="white"/>
    <path d="M427.656 485.221H412.018C409.561 485.219 407.205 484.242 405.467 482.505C403.73 480.767 402.753 478.411 402.75 475.954V460.316C402.753 457.858 403.73 455.502 405.467 453.765C407.205 452.027 409.561 451.05 412.018 451.048H427.656C430.113 451.05 432.469 452.027 434.207 453.765C435.944 455.502 436.921 457.858 436.924 460.316V475.954C436.921 478.411 435.944 480.767 434.207 482.505C432.469 484.242 430.113 485.219 427.656 485.221ZM412.018 453.534C410.215 453.534 408.486 454.25 407.211 455.525C405.936 456.8 405.22 458.529 405.22 460.332V475.97C405.22 477.773 405.936 479.502 407.211 480.777C408.486 482.052 410.215 482.769 412.018 482.769H427.656C429.459 482.769 431.189 482.052 432.464 480.777C433.738 479.502 434.454 477.773 434.454 475.97V460.332C434.454 458.529 433.738 456.8 432.464 455.525C431.189 454.25 429.459 453.534 427.656 453.534H412.018Z" fill="#1D1D1B"/>
    <path d="M724.765 113.609H607.94C593.089 113.609 581.05 125.647 581.05 140.498V199.067C581.05 213.918 593.089 225.957 607.94 225.957H724.765C739.615 225.957 751.654 213.918 751.654 199.067V140.498C751.654 125.647 739.615 113.609 724.765 113.609Z" fill="#00D7AD"/>
    <path d="M724.764 227.191H607.939C600.483 227.183 593.335 224.217 588.062 218.944C582.79 213.672 579.824 206.524 579.815 199.067V140.498C579.824 133.042 582.79 125.893 588.062 120.621C593.335 115.349 600.483 112.383 607.939 112.374H724.764C732.221 112.383 739.369 115.349 744.642 120.621C749.914 125.893 752.88 133.042 752.888 140.498V199.067C752.88 206.524 749.914 213.672 744.642 218.944C739.369 224.217 732.221 227.183 724.764 227.191V227.191ZM607.939 114.843C601.137 114.85 594.615 117.555 589.806 122.365C584.996 127.174 582.291 133.696 582.285 140.498V199.067C582.291 205.869 584.996 212.391 589.806 217.201C594.615 222.011 601.137 224.715 607.939 224.722H724.764C731.567 224.715 738.089 222.011 742.898 217.201C747.708 212.391 750.413 205.869 750.419 199.067V140.498C750.413 133.696 747.708 127.174 742.898 122.365C738.089 117.555 731.567 114.85 724.764 114.843H607.939Z" fill="#1D1D1B"/>
    <path d="M597.215 241.907H597.124C588.627 241.234 580.695 237.39 574.901 231.139C569.107 224.887 565.875 216.685 565.848 208.162V132.226C565.848 131.899 565.978 131.585 566.209 131.353C566.441 131.122 566.755 130.992 567.082 130.992C567.41 130.992 567.724 131.122 567.955 131.353C568.187 131.585 568.317 131.899 568.317 132.226V208.162C568.344 216.065 571.344 223.669 576.719 229.464C582.094 235.258 589.451 238.818 597.33 239.438C597.657 239.45 597.967 239.592 598.19 239.832C598.413 240.072 598.531 240.391 598.519 240.718C598.507 241.046 598.366 241.355 598.126 241.578C597.886 241.801 597.567 241.919 597.24 241.907H597.215Z" fill="#1D1D1B"/>
    <path d="M734.155 242.006H732.196C731.869 242.006 731.555 241.876 731.324 241.645C731.092 241.413 730.962 241.099 730.962 240.772C730.962 240.444 731.092 240.13 731.324 239.899C731.555 239.667 731.869 239.537 732.196 239.537H734.155C742.474 239.528 750.449 236.22 756.331 230.338C762.213 224.456 765.522 216.48 765.531 208.162V132.226C765.522 123.908 762.213 115.932 756.331 110.05C750.449 104.168 742.474 100.86 734.155 100.851H618.202C617.875 100.851 617.561 100.721 617.329 100.489C617.098 100.258 616.968 99.9439 616.968 99.6164C616.968 99.289 617.098 98.9751 617.329 98.7435C617.561 98.512 617.875 98.3818 618.202 98.3818H734.155C743.128 98.3927 751.73 101.962 758.075 108.307C764.419 114.651 767.989 123.254 768 132.226V208.162C767.989 217.135 764.419 225.737 758.075 232.081C751.73 238.426 743.128 241.995 734.155 242.006V242.006Z" fill="#1D1D1B"/>
    <path d="M677.036 139.033L631.718 168.976C631.085 169.396 630.568 169.97 630.215 170.643C629.863 171.316 629.685 172.067 629.7 172.827C629.715 173.587 629.921 174.331 630.3 174.99C630.678 175.649 631.217 176.202 631.865 176.597L677.184 204.112C677.868 204.528 678.65 204.755 679.45 204.769C680.251 204.783 681.041 204.584 681.739 204.192C682.437 203.8 683.017 203.229 683.422 202.538C683.826 201.847 684.04 201.061 684.04 200.26V142.802C684.039 141.987 683.818 141.187 683.399 140.487C682.981 139.787 682.38 139.214 681.662 138.827C680.944 138.441 680.136 138.256 679.321 138.292C678.506 138.328 677.717 138.584 677.036 139.033V139.033Z" fill="#FFCB89"/>
    <path d="M679.521 206.013C678.471 206.019 677.44 205.735 676.542 205.19L631.224 177.675C630.4 177.17 629.716 176.464 629.236 175.625C628.756 174.786 628.496 173.839 628.478 172.873C628.46 171.906 628.685 170.951 629.133 170.094C629.582 169.238 630.238 168.508 631.042 167.972L676.361 138.028C677.228 137.461 678.232 137.139 679.268 137.095C680.303 137.051 681.331 137.287 682.243 137.778C683.156 138.269 683.92 138.997 684.453 139.886C684.986 140.775 685.27 141.791 685.274 142.827V200.285C685.274 201.813 684.667 203.278 683.587 204.359C682.506 205.439 681.041 206.046 679.513 206.046L679.521 206.013ZM677.718 140.07L632.401 170.013C631.944 170.32 631.572 170.737 631.318 171.225C631.064 171.713 630.937 172.257 630.948 172.807C630.958 173.357 631.107 173.896 631.379 174.374C631.652 174.852 632.04 175.254 632.508 175.544L677.826 203.059C678.323 203.345 678.885 203.497 679.458 203.5C680.032 203.502 680.596 203.355 681.095 203.072C681.594 202.789 682.01 202.381 682.303 201.888C682.596 201.395 682.755 200.834 682.764 200.26V142.802C682.768 142.209 682.609 141.625 682.304 141.116C681.999 140.606 681.56 140.19 681.035 139.913C680.516 139.626 679.927 139.489 679.335 139.517C678.742 139.544 678.168 139.736 677.677 140.07H677.718Z" fill="#1D1E1B"/>
    <path d="M622.729 134.185C622.498 134.185 622.271 134.12 622.075 133.997C621.879 133.875 621.721 133.701 621.619 133.494C598.384 85.756 553.09 52.669 519.18 33.327C482.373 12.3307 450.668 2.53621 450.347 2.43745C450.182 2.39929 450.027 2.32759 449.89 2.22666C449.754 2.12573 449.64 1.99782 449.555 1.85089C449.471 1.70397 449.417 1.54115 449.398 1.37265C449.379 1.20415 449.395 1.03357 449.445 0.871498C449.495 0.709431 449.577 0.559322 449.688 0.430629C449.798 0.301937 449.934 0.197314 450.086 0.123388C450.239 0.0494611 450.406 0.0078849 450.575 0.00101339C450.745 -0.00585812 450.914 0.0222752 451.072 0.0836009C451.385 0.174138 483.319 10.0344 520.357 31.1542C554.58 50.6772 600.317 84.0853 623.84 132.391C623.98 132.685 623.999 133.022 623.893 133.33C623.787 133.638 623.564 133.892 623.273 134.037C623.105 134.126 622.919 134.177 622.729 134.185V134.185Z" fill="#1D1E1B"/>
    <path d="M598.861 139.124C598.636 139.124 598.415 139.063 598.222 138.947C598.029 138.831 597.871 138.664 597.766 138.465C581.716 108.012 523.312 86.6122 522.72 86.3735C522.556 86.3285 522.403 86.2503 522.271 86.1438C522.139 86.0372 522.03 85.9046 521.952 85.7542C521.873 85.6037 521.826 85.4388 521.815 85.2695C521.803 85.1002 521.826 84.9303 521.883 84.7703C521.94 84.6104 522.028 84.4639 522.144 84.3399C522.26 84.216 522.401 84.1173 522.556 84.05C522.712 83.9826 522.88 83.948 523.05 83.9485C523.22 83.9489 523.387 83.9844 523.543 84.0526C526.012 84.9333 583.445 105.971 599.939 137.313C600.082 137.601 600.109 137.934 600.012 138.241C599.915 138.548 599.703 138.805 599.42 138.959C599.249 139.056 599.058 139.112 598.861 139.124V139.124Z" fill="#1D1E1B"/>
</svg>
